<?xml version="1.0" encoding="UTF-8" standalone="no"?>
<!-- Created with Inkscape (http://www.inkscape.org/) -->

<svg
   xmlns:osb="http://www.openswatchbook.org/uri/2009/osb"
   xmlns:dc="http://purl.org/dc/elements/1.1/"
   xmlns:cc="http://creativecommons.org/ns#"
   xmlns:rdf="http://www.w3.org/1999/02/22-rdf-syntax-ns#"
   xmlns:svg="http://www.w3.org/2000/svg"
   xmlns="http://www.w3.org/2000/svg"
   xmlns:xlink="http://www.w3.org/1999/xlink"
   xmlns:sodipodi="http://sodipodi.sourceforge.net/DTD/sodipodi-0.dtd"
   xmlns:inkscape="http://www.inkscape.org/namespaces/inkscape"
   sodipodi:docname="fond.svg"
   inkscape:version="0.91 r13725"
   version="1.1"
   id="svg2"
   viewBox="0 0 744.09448819 1052.3622047"
   height="297mm"
   width="210mm">
  <sodipodi:namedview
     inkscape:window-maximized="1"
     inkscape:window-y="1"
     inkscape:window-x="0"
     inkscape:window-height="1091"
     inkscape:window-width="1920"
     inkscape:object-paths="true"
     inkscape:snap-intersection-paths="false"
     inkscape:guide-bbox="true"
     inkscape:object-nodes="true"
     inkscape:bbox-nodes="false"
     inkscape:snap-bbox="true"
     showguides="false"
     showgrid="false"
     inkscape:current-layer="layer1"
     inkscape:document-units="px"
     inkscape:cy="1019.3111"
     inkscape:cx="-538.12956"
     inkscape:zoom="0.5"
     inkscape:pageshadow="2"
     inkscape:pageopacity="0.0"
     borderopacity="1.0"
     bordercolor="#666666"
     pagecolor="#ffffff"
     id="base"
     inkscape:snap-object-midpoints="true"
     inkscape:snap-bbox-midpoints="true"
     inkscape:snap-center="true"
     inkscape:snap-global="false" />
  <defs
     id="defs4">
    <linearGradient
       id="linearGradient4230"
       osb:paint="solid">
      <stop
         style="stop-color:#ffffff;stop-opacity:1;"
         offset="0"
         id="stop4232" />
    </linearGradient>
    <linearGradient
       id="linearGradient4219"
       osb:paint="solid">
      <stop
         style="stop-color:#f5f7f8;stop-opacity:1;"
         offset="0"
         id="stop4221" />
    </linearGradient>
    <linearGradient
       id="linearGradient5087"
       osb:paint="solid">
      <stop
         style="stop-color:#d4d2d7;stop-opacity:1;"
         offset="0"
         id="stop5089" />
    </linearGradient>
    <linearGradient
       id="linearGradient5081"
       osb:paint="solid">
      <stop
         style="stop-color:#d4d2d7;stop-opacity:1;"
         offset="0"
         id="stop5083" />
    </linearGradient>
    <linearGradient
       id="linearGradient5075"
       osb:paint="solid">
      <stop
         style="stop-color:#000000;stop-opacity:1;"
         offset="0"
         id="stop5077" />
    </linearGradient>
    <linearGradient
       id="linearGradient4930"
       osb:paint="solid">
      <stop
         style="stop-color:#a02c2c;stop-opacity:1;"
         offset="0"
         id="stop4932" />
    </linearGradient>
    <linearGradient
       id="linearGradient4924"
       osb:paint="solid">
      <stop
         style="stop-color:#000000;stop-opacity:1;"
         offset="0"
         id="stop4926" />
    </linearGradient>
    <linearGradient
       id="linearGradient4916"
       osb:paint="solid">
      <stop
         style="stop-color:#ffffff;stop-opacity:1;"
         offset="0"
         id="stop4918" />
    </linearGradient>
    <linearGradient
       osb:paint="solid"
       id="linearGradient4420">
      <stop
         id="stop4422"
         offset="0"
         style="stop-color:#d4d2d7;stop-opacity:1;" />
    </linearGradient>
    <linearGradient
       osb:paint="solid"
       id="linearGradient4414">
      <stop
         id="stop4416"
         offset="0"
         style="stop-color:#d4d2d7;stop-opacity:0.47843137;" />
    </linearGradient>
    <linearGradient
       osb:paint="solid"
       id="linearGradient4404">
      <stop
         id="stop4406"
         offset="0"
         style="stop-color:#db9e36;stop-opacity:1;" />
    </linearGradient>
    <linearGradient
       osb:paint="solid"
       id="linearGradient4398">
      <stop
         id="stop4400"
         offset="0"
         style="stop-color:#ffd34e;stop-opacity:1;" />
    </linearGradient>
    <linearGradient
       gradientUnits="userSpaceOnUse"
       y2="327.90143"
       x2="-1145.8793"
       y1="327.90143"
       x1="-1860.8702"
       id="linearGradient4418"
       xlink:href="#linearGradient4420"
       inkscape:collect="always"
       gradientTransform="matrix(0.83930166,0,0,0.83930166,-1536.5873,1593.6779)" />
    <linearGradient
       gradientUnits="userSpaceOnUse"
       y2="-27.226433"
       x2="-1325.8107"
       y1="-27.226433"
       x1="-1680.9388"
       id="linearGradient4424"
       xlink:href="#linearGradient4420"
       inkscape:collect="always"
       gradientTransform="matrix(0.78298395,0,0,0.78298395,-1621.2539,1592.1445)" />
    <linearGradient
       y2="574.12338"
       x2="-1503.3747"
       y1="574.12338"
       x1="-1953.2032"
       gradientUnits="userSpaceOnUse"
       id="linearGradient4734"
       xlink:href="#linearGradient4404"
       inkscape:collect="always" />
    <linearGradient
       y2="574.12338"
       x2="-1053.5462"
       y1="574.12338"
       x1="-1503.3747"
       gradientUnits="userSpaceOnUse"
       id="linearGradient4736"
       xlink:href="#linearGradient4398"
       inkscape:collect="always" />
    <linearGradient
       inkscape:collect="always"
       xlink:href="#linearGradient4420"
       id="linearGradient4854"
       gradientUnits="userSpaceOnUse"
       x1="-1860.8702"
       y1="327.90143"
       x2="-1145.8793"
       y2="327.90143"
       gradientTransform="translate(-1240,0)" />
    <linearGradient
       inkscape:collect="always"
       xlink:href="#linearGradient4404"
       id="linearGradient4856"
       gradientUnits="userSpaceOnUse"
       x1="-1953.2032"
       y1="574.12338"
       x2="-1503.3747"
       y2="574.12338" />
    <linearGradient
       inkscape:collect="always"
       xlink:href="#linearGradient4398"
       id="linearGradient4858"
       gradientUnits="userSpaceOnUse"
       x1="-1503.3747"
       y1="574.12338"
       x2="-1053.5462"
       y2="574.12338" />
    <linearGradient
       inkscape:collect="always"
       xlink:href="#linearGradient4420"
       id="linearGradient4860"
       gradientUnits="userSpaceOnUse"
       x1="-1680.9388"
       y1="-27.226433"
       x2="-1325.8107"
       y2="-27.226433"
       gradientTransform="translate(-1240,0)" />
    <linearGradient
       inkscape:collect="always"
       xlink:href="#linearGradient4404"
       id="linearGradient4862"
       gradientUnits="userSpaceOnUse"
       x1="-1953.2032"
       y1="574.12338"
       x2="-1503.3747"
       y2="574.12338" />
    <linearGradient
       inkscape:collect="always"
       xlink:href="#linearGradient4398"
       id="linearGradient4864"
       gradientUnits="userSpaceOnUse"
       x1="-1503.3747"
       y1="574.12338"
       x2="-1053.5462"
       y2="574.12338" />
    <linearGradient
       inkscape:collect="always"
       xlink:href="#linearGradient4404"
       id="linearGradient5085"
       x1="-1253.8105"
       y1="1521.7808"
       x2="-812"
       y2="1521.7808"
       gradientUnits="userSpaceOnUse" />
    <linearGradient
       inkscape:collect="always"
       xlink:href="#linearGradient4398"
       id="linearGradient5091"
       x1="-812"
       y1="1521.7808"
       x2="-370.18945"
       y2="1521.7808"
       gradientUnits="userSpaceOnUse" />
    <clipPath
       clipPathUnits="userSpaceOnUse"
       id="clipPath4229">
      <g
         transform="matrix(-1.0277115,0,0,1.0277115,-2362.6016,961.96226)"
         id="g4231"
         style="font-style:normal;font-weight:normal;font-size:624.19854736px;line-height:125%;font-family:sans-serif;letter-spacing:0px;word-spacing:0px;fill:#ffffff;fill-opacity:1;stroke:none;stroke-width:1px;stroke-linecap:butt;stroke-linejoin:miter;stroke-opacity:1">
        <path
           sodipodi:nodetypes="ccccccccccc"
           inkscape:connector-curvature="0"
           id="path4233"
           style="font-style:normal;font-variant:normal;font-weight:bold;font-stretch:normal;font-family:'Oriya Sangam MN';-inkscape-font-specification:'Oriya Sangam MN Bold';fill:#ffffff;fill-opacity:1"
           d="m -1364.4894,458.0741 -204.1129,0 0,111.73154 127.5187,0 49.7537,50.56008 -177.2724,0 0,176.02399 -58.0504,-52.3259 0,-337.17399 211.0249,0 z" />
      </g>
    </clipPath>
    <linearGradient
       inkscape:collect="always"
       xlink:href="#linearGradient4404"
       id="linearGradient4239"
       gradientUnits="userSpaceOnUse"
       x1="-1253.8105"
       y1="1521.7808"
       x2="-812"
       y2="1521.7808"
       gradientTransform="matrix(0.67902407,0,0,0.74507042,1549.557,1318.5935)" />
    <linearGradient
       inkscape:collect="always"
       xlink:href="#linearGradient4398"
       id="linearGradient4241"
       gradientUnits="userSpaceOnUse"
       x1="-812"
       y1="1521.7808"
       x2="-370.18945"
       y2="1521.7808"
       gradientTransform="matrix(0.67902407,0,0,0.74507042,1549.557,1318.5935)" />
    <filter
       inkscape:collect="always"
       style="color-interpolation-filters:sRGB"
       id="filter4952"
       x="-0.2868"
       width="1.5736"
       y="-0.2868"
       height="1.5736">
      <feGaussianBlur
         inkscape:collect="always"
         stdDeviation="79.091305"
         id="feGaussianBlur4954" />
    </filter>
    <linearGradient
       inkscape:collect="always"
       xlink:href="#linearGradient4398"
       id="linearGradient4223"
       x1="-1240.6488"
       y1="-254.19833"
       x2="-570.18707"
       y2="-254.19833"
       gradientUnits="userSpaceOnUse" />
    <linearGradient
       inkscape:collect="always"
       xlink:href="#linearGradient4404"
       id="linearGradient4234"
       x1="-1241.1486"
       y1="-155.73772"
       x2="-919.23804"
       y2="-155.73772"
       gradientUnits="userSpaceOnUse" />
    <linearGradient
       inkscape:collect="always"
       xlink:href="#linearGradient4398"
       id="linearGradient4240"
       gradientUnits="userSpaceOnUse"
       x1="-1240.6488"
       y1="-254.19833"
       x2="-570.18707"
       y2="-254.19833"
       gradientTransform="translate(766,0)" />
    <linearGradient
       inkscape:collect="always"
       xlink:href="#linearGradient4404"
       id="linearGradient4242"
       gradientUnits="userSpaceOnUse"
       x1="-1241.1486"
       y1="-155.73772"
       x2="-919.23804"
       y2="-155.73772"
       gradientTransform="translate(766,0)" />
  </defs>
  <metadata
     id="metadata7">
    <rdf:RDF>
      <cc:Work
         rdf:about="">
        <dc:format>image/svg+xml</dc:format>
        <dc:type
           rdf:resource="http://purl.org/dc/dcmitype/StillImage" />
        <dc:title />
      </cc:Work>
    </rdf:RDF>
  </metadata>
  <g
     id="layer1"
     inkscape:groupmode="layer"
     inkscape:label="Calque 1">
    <circle
       style="opacity:0.608;fill:#ffffff;fill-opacity:1;filter:url(#filter4952)"
       id="path4930"
       cx="998.18951"
       cy="2489.2031"
       r="330.92596"
       inkscape:export-xdpi="13.826342"
       inkscape:export-ydpi="13.826342" />
    <path
       id="circle4412"
       d="m -2675.9917,1702.1363 a 162.71408,199.59589 0 0 1 -122.3807,68.2867 162.71408,199.59589 0 0 1 -122.238,-68.2375 300.04655,182.80986 0 0 0 -177.8091,166.7013 300.04655,182.80986 0 0 0 300.0471,182.8088 300.04655,182.80986 0 0 0 300.0471,-182.8088 300.04655,182.80986 0 0 0 -177.6664,-166.7505 z"
       style="opacity:0.11799999;fill:url(#linearGradient4418);fill-opacity:1;stroke:none"
       inkscape:connector-curvature="0"
       inkscape:export-xdpi="26.313948"
       inkscape:export-ydpi="26.313948" />
    <ellipse
       ry="170.54321"
       rx="139.0298"
       cy="1570.8267"
       cx="-2798.3723"
       id="path4410"
       style="opacity:0.11799999;fill:url(#linearGradient4424);fill-opacity:1;stroke:none"
       inkscape:export-xdpi="26.313948"
       inkscape:export-ydpi="26.313948" />
    <rect
       inkscape:export-ydpi="76.011894"
       inkscape:export-xdpi="76.011894"
       y="86.782806"
       x="-31.559526"
       height="473.41171"
       width="525.70721"
       id="rect4177"
       style="fill:none;fill-opacity:0.4790419;stroke:none" />
    <path
       inkscape:export-ydpi="208.59625"
       inkscape:export-xdpi="208.59625"
       sodipodi:nodetypes="cccc"
       inkscape:connector-curvature="0"
       id="path4161"
       d="m 292.67153,365.44439 82.59,82.59 -82.59,82.58998 z"
       style="fill:#d4d2d7;fill-opacity:0.4790419;fill-rule:evenodd;stroke:none;stroke-width:0.38329154px;stroke-linecap:butt;stroke-linejoin:miter;stroke-opacity:1;opacity:0.528" />
    <path
       inkscape:export-ydpi="208.59625"
       inkscape:export-xdpi="208.59625"
       sodipodi:nodetypes="cccc"
       inkscape:connector-curvature="0"
       id="path4157"
       d="m 339.21835,-60.304448 -189.601,189.601008 189.601,189.601 z"
       style="opacity:0.33700005;fill:#d4d2d7;fill-opacity:0.4790419;fill-rule:evenodd;stroke:none;stroke-width:0.38329154px;stroke-linecap:butt;stroke-linejoin:miter;stroke-opacity:1" />
    <path
       inkscape:export-ydpi="208.59625"
       inkscape:export-xdpi="208.59625"
       sodipodi:nodetypes="cccc"
       inkscape:connector-curvature="0"
       id="rect3336"
       d="m 256.62835,236.30756 82.59,82.59 -82.59,82.59 z"
       style="fill:#d4d2d7;fill-opacity:0.4790419;fill-rule:evenodd;stroke:none;stroke-width:0.38329154px;stroke-linecap:butt;stroke-linejoin:miter;stroke-opacity:1;opacity:1" />
    <path
       inkscape:export-ydpi="208.59625"
       inkscape:export-xdpi="208.59625"
       style="fill:#db9e36;fill-opacity:1;fill-rule:evenodd;stroke:none;stroke-width:0.38329154px;stroke-linecap:butt;stroke-linejoin:miter;stroke-opacity:1"
       d="m 375.26153,282.85438 -82.59,82.59001 82.59,82.59 z"
       id="path4139"
       inkscape:connector-curvature="0"
       sodipodi:nodetypes="cccc" />
    <path
       inkscape:export-ydpi="208.59625"
       inkscape:export-xdpi="208.59625"
       style="fill:#d4d2d7;fill-opacity:0.4790419;fill-rule:evenodd;stroke:none;stroke-width:0.38329154px;stroke-linecap:butt;stroke-linejoin:miter;stroke-opacity:1;opacity:0.163"
       d="M 292.67153,365.44439 347.41,420.18285 292.67153,474.9213 Z"
       id="path4141"
       inkscape:connector-curvature="0"
       sodipodi:nodetypes="cccc" />
    <path
       inkscape:export-ydpi="208.59625"
       inkscape:export-xdpi="208.59625"
       sodipodi:nodetypes="cccc"
       inkscape:connector-curvature="0"
       id="path4143"
       d="m 292.67153,365.44439 -36.3073,36.30729 36.3073,36.30728 z"
       style="fill:#d4d2d7;fill-opacity:0.4790419;fill-rule:evenodd;stroke:none;stroke-width:0.38329154px;stroke-linecap:butt;stroke-linejoin:miter;stroke-opacity:1;opacity:0.807" />
    <path
       inkscape:export-ydpi="208.59625"
       inkscape:export-xdpi="208.59625"
       style="opacity:0.86000001;fill:#d4d2d7;fill-opacity:0.4790419;fill-rule:evenodd;stroke:none;stroke-width:0.38329154px;stroke-linecap:butt;stroke-linejoin:miter;stroke-opacity:1"
       d="m 339.21835,225.80391 -46.54682,46.54683 46.54682,46.54682 z"
       id="path4145"
       inkscape:connector-curvature="0"
       sodipodi:nodetypes="cccc" />
    <path
       inkscape:export-ydpi="208.59625"
       inkscape:export-xdpi="208.59625"
       sodipodi:nodetypes="cccc"
       inkscape:connector-curvature="0"
       id="path4147"
       d="m 339.21835,175.50129 56.37679,56.37678 -56.37679,56.37679 z"
       style="fill:#d4d2d7;fill-opacity:0.4790419;fill-rule:evenodd;stroke:none;stroke-width:0.38329154px;stroke-linecap:butt;stroke-linejoin:miter;stroke-opacity:1;opacity:0.635" />
    <path
       inkscape:export-ydpi="208.59625"
       inkscape:export-xdpi="208.59625"
       style="opacity:0.63300003;fill:#d4d2d7;fill-opacity:0.4790419;fill-rule:evenodd;stroke:none;stroke-width:0.38329154px;stroke-linecap:butt;stroke-linejoin:miter;stroke-opacity:1"
       d="m 292.67153,179.25708 46.54682,46.54682 -46.54682,46.54684 z"
       id="path4149"
       inkscape:connector-curvature="0"
       sodipodi:nodetypes="cccc" />
    <path
       inkscape:export-ydpi="208.59625"
       inkscape:export-xdpi="208.59625"
       sodipodi:nodetypes="cccc"
       inkscape:connector-curvature="0"
       id="path4151"
       d="m 339.21835,47.517259 -89.14329,89.143291 89.14329,89.14335 z"
       style="opacity:0.33000004;fill:#d4d2d7;fill-opacity:0.4790419;fill-rule:evenodd;stroke:none;stroke-width:0.38329154px;stroke-linecap:butt;stroke-linejoin:miter;stroke-opacity:1" />
    <path
       inkscape:export-ydpi="208.59625"
       inkscape:export-xdpi="208.59625"
       sodipodi:nodetypes="cccc"
       inkscape:connector-curvature="0"
       id="path4153"
       d="m 375.26153,282.85438 82.59001,82.59001 -82.59001,82.59 z"
       style="fill:#ffd34e;fill-opacity:1;fill-rule:evenodd;stroke:none;stroke-width:0.38329154px;stroke-linecap:butt;stroke-linejoin:miter;stroke-opacity:1" />
    <path
       inkscape:export-ydpi="208.59625"
       inkscape:export-xdpi="208.59625"
       style="opacity:0.42900002;fill:#d4d2d7;fill-opacity:0.4790419;fill-rule:evenodd;stroke:none;stroke-width:0.38329154px;stroke-linecap:butt;stroke-linejoin:miter;stroke-opacity:1"
       d="m 339.21835,206.14399 56.37679,56.37679 -56.37679,56.37678 z"
       id="path4155"
       inkscape:connector-curvature="0"
       sodipodi:nodetypes="cccc" />
    <path
       inkscape:export-ydpi="208.59625"
       inkscape:export-xdpi="208.59625"
       style="opacity:0.72000002;fill:#d4d2d7;fill-opacity:0.4790419;fill-rule:evenodd;stroke:none;stroke-width:0.38329154px;stroke-linecap:butt;stroke-linejoin:miter;stroke-opacity:1"
       d="M 339.21835,-34.101751 459.67803,86.35793 339.21835,206.81769 Z"
       id="path4159"
       inkscape:connector-curvature="0"
       sodipodi:nodetypes="cccc" />
    <path
       inkscape:export-ydpi="208.59625"
       inkscape:export-xdpi="208.59625"
       sodipodi:nodetypes="cccc"
       inkscape:connector-curvature="0"
       id="path4163"
       d="m 292.67153,96.501713 41.37764,41.377657 -41.37764,41.37768 z"
       style="opacity:0.63300003;fill:#d4d2d7;fill-opacity:0.4790419;fill-rule:evenodd;stroke:none;stroke-width:0.38329154px;stroke-linecap:butt;stroke-linejoin:miter;stroke-opacity:1" />
    <path
       inkscape:export-ydpi="208.59625"
       inkscape:export-xdpi="208.59625"
       style="fill:#d4d2d7;fill-opacity:0.4790419;fill-rule:evenodd;stroke:none;stroke-width:0.38329154px;stroke-linecap:butt;stroke-linejoin:miter;stroke-opacity:1;opacity:0.328"
       d="m 343.40355,479.89235 -50.73202,50.73202 50.73202,50.73202 z"
       id="path4171"
       inkscape:connector-curvature="0"
       sodipodi:nodetypes="cccc" />
    <path
       inkscape:export-ydpi="208.59625"
       inkscape:export-xdpi="208.59625"
       sodipodi:nodetypes="cccc"
       inkscape:connector-curvature="0"
       id="path4173"
       d="m 292.67153,530.62437 32.71043,32.71043 -32.71043,32.71043 z"
       style="fill:#d4d2d7;fill-opacity:0.4790419;fill-rule:evenodd;stroke:none;stroke-width:0.38329154px;stroke-linecap:butt;stroke-linejoin:miter;stroke-opacity:1;opacity:0.126" />
    <path
       inkscape:export-ydpi="208.59625"
       inkscape:export-xdpi="208.59625"
       sodipodi:nodetypes="cccc"
       inkscape:connector-curvature="0"
       id="path4175"
       d="m 292.67153,474.9213 -70.39191,70.39191 70.39191,70.39191 z"
       style="fill:#d4d2d7;fill-opacity:0.4790419;fill-rule:evenodd;stroke:none;stroke-width:0.38329154px;stroke-linecap:butt;stroke-linejoin:miter;stroke-opacity:1;opacity:0.266" />
    <path
       sodipodi:nodetypes="cccc"
       inkscape:connector-curvature="0"
       id="path4244"
       d="M 292.67153,-13.757626 20.480556,258.4334 292.67153,530.62437 Z"
       style="opacity:0.86000001;fill:#d4d2d7;fill-opacity:0.07784431;fill-rule:evenodd;stroke:none;stroke-width:0.38329154px;stroke-linecap:butt;stroke-linejoin:miter;stroke-opacity:1"
       inkscape:export-xdpi="208.59625"
       inkscape:export-ydpi="208.59625" />
    <path
       style="opacity:1;fill:#d4d2d7;fill-opacity:0.17664671;fill-rule:evenodd;stroke:none;stroke-width:0.38329154px;stroke-linecap:butt;stroke-linejoin:miter;stroke-opacity:1"
       d="m 256.62835,236.30756 -82.59,82.59 82.59,82.59 z"
       id="path4246"
       inkscape:connector-curvature="0"
       sodipodi:nodetypes="cccc"
       inkscape:export-xdpi="208.59625"
       inkscape:export-ydpi="208.59625" />
    <path
       style="opacity:1;fill:#d4d2d7;fill-opacity:0.39820359;fill-rule:evenodd;stroke:none;stroke-width:0.38329154px;stroke-linecap:butt;stroke-linejoin:miter;stroke-opacity:1"
       d="m 339.52803,21.52433 64.83361,64.83361 -64.83361,64.8336 z"
       id="path4248"
       inkscape:connector-curvature="0"
       sodipodi:nodetypes="cccc"
       inkscape:export-xdpi="208.59625"
       inkscape:export-ydpi="208.59625" />
    <path
       inkscape:connector-curvature="0"
       id="path4388"
       d="m -895.20739,-589.03835 c -16.08024,-0.15816 -32.36241,3.67766 -47.98437,11.74609 -26.39,13.62988 -47.31268,36.3613 -63.23434,68.70118 -9.2443,18.77687 -14.2696,33.47496 -18.9942,55.55078 -3.0897,14.4365 -3.3648,18.03193 -3.3984,44.69922 -0.026,20.51716 0.3912,29.42834 1.4258,30.46289 0.8042,0.80426 11.8241,3.06885 24.4882,5.03125 23.48754,3.63959 78.00543,13.56058 91.55083,16.66015 4.125,0.94392 7.7812,1.76791 8.125,1.83203 0.3437,0.0641 10.1875,-1.86062 21.875,-4.27734 18.6299,-3.85228 92.25615,-16.83398 95.47656,-16.83398 1.48408,0 4.318,-8.7279 7.10156,-21.875 3.26355,-15.41413 3.92877,-54.47378 1.20703,-70.88282 -4.19515,-25.29218 -15.90323,-54.40367 -28.80273,-71.61718 -23.8304,-31.80005 -55.90974,-48.87344 -88.83594,-49.19727 z m -56.92969,99.70508 c 7.89072,0.20901 13.84141,10.78769 11.44532,25.50976 -1.3924,8.55539 -3.7983,13.3434 -8.8379,17.58399 -4.448,3.74276 -9.33683,4.18925 -13.55273,1.23633 -4.0825,-2.85952 -6.39648,-9.17738 -6.39648,-17.46485 0,-9.83738 2.25686,-16.38702 7.57226,-21.97461 3.29794,-3.46687 6.68186,-4.97241 9.76953,-4.89062 z m 107.62305,15.11719 c 7.9508,0 12.69141,7.22343 12.69141,19.33789 0,19.76953 -13.87141,33.39224 -23.84571,23.41797 -11.7128,-11.71284 -3.6139,-42.75586 11.1543,-42.75586 z m -103.33789,63.01757 c 0.61488,-0.004 3.72375,1.96735 7.21875,4.59571 15.4097,11.58845 26.20351,14.92031 47.97851,14.8125 8.2774,-0.041 17.86329,-0.54038 21.30079,-1.11133 7.9044,-1.31289 9.04695,-0.60099 5.40625,3.37109 -5.588,6.09656 -17.15159,12.58522 -26.0254,14.60352 -10.0804,2.29274 -13.61041,2.33821 -21.26171,0.27344 -11.3757,-3.06985 -23.67597,-14.33475 -31.35157,-28.7129 -2.1362,-4.00156 -3.64471,-7.51347 -3.35351,-7.80468 0.0182,-0.0182 0.0469,-0.0271 0.0879,-0.0274 z m 376.85157,20.32032 c -1.47811,0.0299 -6.38564,1.69434 -11.8457,4.0625 -16.2921,7.06628 -34.57632,13.10638 -56.70117,18.72851 -25.0425,6.36351 -43.09801,9.34828 -80.25197,13.26953 -33.10697,3.49412 -64.94079,7.7489 -94.05468,12.57227 -23.8075,3.94425 -70.3686,12.99774 -74.0625,14.40039 l -2.8125,1.06836 0,202.94726 c 0,111.621197 0.37363,203.322951 0.83203,203.781251 1.3858,1.3858 4.19454,1.02693 32.52734,-4.14257 50.8381,-9.2757 100.19124,-16.24775 146.64063,-20.71875 35.22502,-3.3906 61.28092,-8.73767 88.22266,-18.10157 13.07415,-4.544 42.00734,-18.532164 47.40235,-22.917974 l 3.75,-3.04882 0.83984,-200.431637 c 0.46267,-110.23732 0.43049,-200.85755 -0.0723,-201.37891 -0.0629,-0.0652 -0.2029,-0.0941 -0.41406,-0.0898 z"
       style="fill:url(#linearGradient4223);fill-opacity:1"
       sodipodi:nodetypes="ssssscsssssssssssssssssssscsssssssccccssssccscsssccsccc"
       inkscape:export-xdpi="33.558979"
       inkscape:export-ydpi="33.558979" />
    <g
       transform="matrix(0,-0.90077583,1,0,-3372.4955,754.43631)"
       id="g4438"
       inkscape:export-xdpi="26.313948"
       inkscape:export-ydpi="26.313948">
      <path
         sodipodi:nodetypes="czcczcc"
         inkscape:connector-curvature="0"
         id="path4440"
         d="m -1150.6144,124.29493 c 0,0 -42.206,6.68024 -42.206,166.48671 0,159.80647 -52.265,283.15327 -52.265,283.15327 0,0 -611.0023,4.33044 -611.0023,4.33044 0,0 37.8694,-102.8148 37.8694,-240.7518 0,-137.937 30.4777,-140.96912 30.4777,-140.96912 0,0 637.1262,-72.2495 637.1262,-72.2495"
         style="opacity:1;fill:url(#linearGradient4734);fill-opacity:1;stroke:none" />
      <path
         style="opacity:1;fill:url(#linearGradient4736);fill-opacity:1;stroke:none"
         d="m -1150.6144,1022.2358 c 0,0 -42.206,-6.082 -42.206,-165.88847 0,-159.80648 -52.265,-282.41242 -52.265,-282.41242 0,0 -611.0023,4.33044 -611.0023,4.33044 0,0 37.8694,102.27801 37.8694,240.21501 0,137.937 30.4777,140.5371 30.4777,140.5371 0,0 637.1262,63.21834 637.1262,63.21834"
         id="path4442"
         inkscape:connector-curvature="0"
         sodipodi:nodetypes="czcczcc" />
    </g>
    <path
       style="opacity:1;fill:url(#linearGradient4854);fill-opacity:1;stroke:none"
       d="m -2597.5625,129.22461 a 193.86841,237.81187 0 0 1 -145.8125,81.36133 193.86841,237.81187 0 0 1 -145.6426,-81.30274 357.49548,217.81187 0 0 0 -211.8535,198.61914 357.49548,217.81187 0 0 0 357.4961,217.81055 357.49548,217.81187 0 0 0 357.4961,-217.81055 357.49548,217.81187 0 0 0 -211.6836,-198.67773 z"
       id="path4836"
       inkscape:connector-curvature="0" />
    <g
       id="g4838"
       transform="translate(-1240,0)">
      <path
         sodipodi:nodetypes="czcczcc"
         inkscape:connector-curvature="0"
         id="path4840"
         d="m -1953.2032,221.36304 c 0,0 1.9169,35.51279 163.6451,35.51279 161.7282,0 286.1834,44.98286 286.1834,44.98286 l 0,625.02502 c 0,0 -122.0337,-44.98286 -286.1834,-44.98286 -164.1497,0 -163.6451,-35.51279 -163.6451,-35.51279 z"
         style="opacity:1;fill:url(#linearGradient4856);fill-opacity:1;stroke:none" />
      <path
         style="opacity:1;fill:url(#linearGradient4858);fill-opacity:1;stroke:none"
         d="m -1053.5462,221.36304 c 0,0 -1.9169,35.51279 -163.6451,35.51279 -161.7282,0 -286.1834,44.98286 -286.1834,44.98286 l 0,625.02502 c 0,0 122.0337,-44.98286 286.1834,-44.98286 164.1497,0 163.6451,-35.51279 163.6451,-35.51279 z"
         id="path4842"
         inkscape:connector-curvature="0"
         sodipodi:nodetypes="czcczcc" />
    </g>
    <ellipse
       style="opacity:1;fill:url(#linearGradient4860);fill-opacity:1;stroke:none"
       id="ellipse4844"
       cx="-2743.3748"
       cy="-27.226433"
       rx="177.56406"
       ry="217.81187" />
    <path
       style="opacity:1;fill:#ff6600;fill-opacity:1;stroke:none"
       d="m -3193.2032,221.36304 897.9409,0 -70,705.47326 -747.9409,0 z"
       id="path4846"
       inkscape:connector-curvature="0"
       sodipodi:nodetypes="ccccc" />
    <g
       id="g4848"
       transform="matrix(0,-1,1,0,-3317.4981,-929.25135)">
      <path
         style="opacity:1;fill:url(#linearGradient4862);fill-opacity:1;stroke:none"
         d="m -1150.6144,124.29493 c 0,0 -42.206,6.68024 -42.206,166.48671 0,159.80647 -52.265,283.15327 -52.265,283.15327 0,0 -611.0023,4.33044 -611.0023,4.33044 0,0 37.8694,-102.8148 37.8694,-240.7518 0,-137.937 30.4777,-140.96912 30.4777,-140.96912 0,0 637.1262,-72.2495 637.1262,-72.2495"
         id="path4850"
         inkscape:connector-curvature="0"
         sodipodi:nodetypes="czcczcc" />
      <path
         sodipodi:nodetypes="czcczcc"
         inkscape:connector-curvature="0"
         id="path4852"
         d="m -1150.6144,1022.2358 c 0,0 -42.206,-6.082 -42.206,-165.88847 0,-159.80648 -52.265,-282.41242 -52.265,-282.41242 0,0 -611.0023,4.33044 -611.0023,4.33044 0,0 37.8694,102.27801 37.8694,240.21501 0,137.937 30.4777,140.5371 30.4777,140.5371 0,0 637.1262,63.21834 637.1262,63.21834"
         style="opacity:1;fill:url(#linearGradient4864);fill-opacity:1;stroke:none" />
    </g>
    <g
       style="font-style:normal;font-weight:normal;font-size:624.19854736px;line-height:125%;font-family:sans-serif;letter-spacing:0px;word-spacing:0px;fill:#a02c2c;fill-opacity:0.21327377;stroke:none;stroke-width:1px;stroke-linecap:butt;stroke-linejoin:miter;stroke-opacity:1"
       id="text4909"
       transform="matrix(0.41740486,0,0,0.41740486,-1122.1552,269.14695)">
      <path
         d="m -1364.4894,458.0741 -204.1129,0 0,111.73154 127.5187,0 49.7537,50.56008 -177.2724,0 0,176.02399 -58.0504,-52.3259 0,-337.17399 211.0249,0 z"
         style="font-style:normal;font-variant:normal;font-weight:bold;font-stretch:normal;font-family:'Oriya Sangam MN';-inkscape-font-specification:'Oriya Sangam MN Bold';fill:#a02c2c;fill-opacity:0.21327377"
         id="path4914"
         inkscape:connector-curvature="0"
         sodipodi:nodetypes="ccccccccccc" />
    </g>
    <path
       style="fill:url(#linearGradient5085);fill-rule:evenodd;stroke:none;stroke-width:0.90313286px;stroke-linecap:butt;stroke-linejoin:miter;stroke-opacity:1;fill-opacity:1.0"
       d="m -812,1924.4273 0,-660.1067 -441.8105,-145.1863 81.5517,605.2607 z"
       id="path5038"
       inkscape:connector-curvature="0"
       sodipodi:nodetypes="ccccc" />
    <path
       sodipodi:nodetypes="ccccc"
       inkscape:connector-curvature="0"
       id="path5040"
       d="m -812,1924.4273 0,-660.1067 441.81056,-145.1863 -81.5517,605.2607 z"
       style="fill:url(#linearGradient5091);fill-rule:evenodd;stroke:none;stroke-width:0.90313286px;stroke-linecap:butt;stroke-linejoin:miter;stroke-opacity:1;fill-opacity:1.0" />
    <g
       id="g4835"
       inkscape:export-xdpi="14.545203"
       inkscape:export-ydpi="14.545203"
       transform="translate(2.9426575e-5,0)">
      <path
         inkscape:export-ydpi="4.8000007"
         inkscape:export-xdpi="4.8000007"
         style="fill:url(#linearGradient4239);fill-opacity:1;fill-rule:evenodd;stroke:none;stroke-width:0.90313286px;stroke-linecap:butt;stroke-linejoin:miter;stroke-opacity:1"
         d="m 998.18947,2752.4273 0,-491.826 -299.99997,-108.174 55.37557,450.9618 z"
         id="path4235"
         inkscape:connector-curvature="0"
         sodipodi:nodetypes="ccccc" />
      <path
         inkscape:export-ydpi="4.8000007"
         inkscape:export-xdpi="4.8000007"
         sodipodi:nodetypes="ccccc"
         inkscape:connector-curvature="0"
         id="path4237"
         d="m 998.18947,2752.4273 0,-491.826 300.00003,-108.174 -55.3756,450.9618 z"
         style="fill:url(#linearGradient4241);fill-opacity:1;fill-rule:evenodd;stroke:none;stroke-width:0.90313286px;stroke-linecap:butt;stroke-linejoin:miter;stroke-opacity:1" />
    </g>
    <text
       xml:space="preserve"
       style="font-style:normal;font-weight:normal;font-size:72.18774414px;line-height:125%;font-family:sans-serif;letter-spacing:-0.03355935px;word-spacing:0px;fill:#6c5d53;fill-opacity:1;stroke:none;stroke-width:1px;stroke-linecap:butt;stroke-linejoin:miter;stroke-opacity:1"
       x="996.49255"
       y="2874.1304"
       id="text4212"
       sodipodi:linespacing="125%"
       inkscape:export-xdpi="14.545203"
       inkscape:export-ydpi="14.545203"><tspan
         sodipodi:role="line"
         id="tspan4214"
         x="996.49255"
         y="2874.1304"
         style="font-style:normal;font-variant:normal;font-weight:bold;font-stretch:condensed;font-family:'PT Sans Narrow';-inkscape-font-specification:'PT Sans Narrow Condensed';text-align:center;letter-spacing:0px;text-anchor:middle;fill:#6c5d53"><tspan
   style="font-weight:normal;text-align:center;letter-spacing:0px;text-anchor:middle;fill:#6c5d53"
   id="tspan4833">EASY </tspan>FLAC</tspan></text>
    <path
       style="fill:url(#linearGradient4234);fill-rule:evenodd;stroke:none;stroke-width:1px;stroke-linecap:butt;stroke-linejoin:miter;stroke-opacity:1;fill-opacity:1"
       d="M -1239.8008 -391.7168 C -1240.7512 -391.7168 -1240.8902 -333.38289 -1240.2793 -190.82617 L -1239.418 10.0625 L -1236.6875 12.96875 C -1232.65 17.26645 -1203.5527 31.203725 -1186.3535 37.078125 C -1157.9255 46.787725 -1132.1664 51.929981 -1095.3691 55.238281 C -1051.2948 59.200881 -985.83852 68.411556 -941.35352 76.910156 C -931.04102 78.880256 -922.04102 80.369503 -921.35352 80.220703 C -920.52802 80.042103 -919.99601 10.820291 -919.78711 -123.62891 C -919.61321 -235.59768 -919.91654 -327.65482 -920.46094 -328.19922 C -922.82314 -330.56142 -997.94639 -343.94091 -1038.2285 -349.17383 C -1048.8848 -350.55814 -1071.1035 -353.08279 -1087.6035 -354.78516 C -1123.6058 -358.49967 -1148.5393 -362.59992 -1172.3789 -368.72461 C -1191.6708 -373.68094 -1217.4098 -382.27027 -1230.3066 -388.05664 C -1234.7923 -390.06925 -1239.0642 -391.7168 -1239.8008 -391.7168 z M -1060.9688 -305.28516 C -1058.7421 -305.26856 -1055.8421 -304.0738 -1050.7344 -301.52148 C -1036.2581 -294.28755 -1023.4854 -278.64847 -1018.8086 -262.42969 C -1015.5886 -251.26319 -1016.781 -233.16328 -1021.6777 -218.86523 C -1025.6513 -207.26264 -1034.0962 -191.68137 -1042.3145 -180.79297 C -1045.0327 -177.19154 -1046.983 -173.52724 -1046.6465 -172.65039 C -1046.31 -171.77353 -1042.0776 -169.78197 -1037.2422 -168.22461 C -1026.018 -164.60963 -1004.4229 -154.01817 -989.66406 -144.88867 C -956.75336 -124.53094 -947.27319 -103.95285 -961.90039 -84.626953 C -966.28599 -78.832553 -966.72852 -77.541944 -966.72852 -70.589844 C -966.72852 -60.634945 -970.61672 -52.605278 -978.20312 -46.892578 C -982.81092 -43.422878 -984.08902 -41.539012 -985.41602 -36.257812 C -988.31072 -24.737713 -996.59924 -15.760628 -1006.9023 -12.986328 C -1010.9383 -11.899528 -1011.6224 -11.107222 -1013.0098 -5.9199219 C -1015.2422 2.4266781 -1021.9681 8.7924348 -1030.4785 10.615234 C -1037.8485 12.193834 -1039.835 12.203019 -1048.8301 10.699219 C -1052.254 10.126919 -1059.004 8.2718719 -1063.8301 6.5761719 C -1070.7508 4.1444719 -1076.0367 3.3474875 -1088.8535 2.8046875 C -1097.791 2.4262875 -1107.9589 1.2613969 -1111.4473 0.21679688 C -1125.6111 -4.0247031 -1145.1507 -20.433166 -1160.8379 -41.259766 L -1169.4395 -52.679688 L -1189.7715 -53.367188 C -1200.9544 -53.745078 -1211.7119 -54.072803 -1213.6777 -54.095703 C -1219.0867 -54.158703 -1220.2178 -55.839517 -1222.3809 -67.041016 C -1227.1518 -91.746517 -1228.0383 -107.40002 -1225.666 -125.0625 C -1224.1666 -136.22515 -1218.8767 -156.83821 -1216.166 -162.08008 L -1214.3398 -165.61133 L -1187.2227 -164.86328 L -1160.1035 -164.11523 L -1138.166 -187.60352 C -1121.1369 -205.83613 -1112.0468 -214.36588 -1097.541 -225.72852 C -1077.0029 -241.81645 -1075.8176 -243.40438 -1072.5234 -259.20312 C -1071.5417 -263.9117 -1070.2061 -275.25758 -1069.5566 -284.41797 C -1068.5077 -299.21047 -1068.0728 -301.31911 -1065.6641 -303.26953 C -1064.0245 -304.59724 -1062.7007 -305.29807 -1060.9688 -305.28516 z M -1055.9668 -291.43359 C -1056.2659 -291.4345 -1056.5218 -291.37309 -1056.7305 -291.24414 C -1057.3623 -290.85367 -1058.2793 -285.59692 -1058.7676 -279.5625 C -1059.9001 -265.56586 -1062.7222 -250.66519 -1065.7969 -242.44727 C -1068.6028 -234.94793 -1073.6384 -229.80806 -1091.3535 -216.36914 C -1103.0003 -207.53375 -1123.1694 -187.9307 -1146.1504 -163.10742 L -1155.8555 -152.625 L -1181.6699 -153.10742 L -1207.4844 -153.5918 L -1209.7812 -146.0918 C -1214.4322 -130.90506 -1216.0708 -117.08539 -1215.2656 -99.841797 C -1214.6033 -85.656696 -1212.1154 -67.673547 -1210.6094 -66.185547 C -1209.8517 -65.436848 -1190.558 -64.376316 -1176.1465 -64.291016 L -1163.4375 -64.216797 L -1156.5723 -54.419922 C -1142.4854 -34.316322 -1127.4257 -19.644909 -1113.9668 -12.912109 C -1106.9331 -9.393509 -1099.4785 -8.0255058 -1099.4785 -10.253906 C -1099.4785 -10.824906 -1102.0164 -13.114997 -1105.1172 -15.341797 C -1108.218 -17.568597 -1111.6551 -21.131066 -1112.7559 -23.259766 C -1115.4284 -28.427866 -1114.4594 -36.14745 -1110.3535 -42.40625 C -1107.3928 -46.91945 -1107.2371 -47.785675 -1108.5273 -52.546875 C -1110.3271 -59.188775 -1108.4963 -65.785203 -1102.7734 -73.283203 C -1099.9922 -76.926803 -1098.3643 -80.713616 -1097.7969 -84.853516 C -1096.741 -92.556817 -1092.4318 -99.175531 -1085.2578 -104.11133 C -1080.6062 -107.31173 -1079.5604 -108.79652 -1078.8184 -113.26172 C -1076.9667 -124.40606 -1071.1393 -131.6978 -1061.0762 -135.46289 C -1052.0501 -138.83998 -1043.8467 -138.61291 -1031.8691 -134.6543 C -1021.6968 -131.29229 -1001.8803 -120.79739 -1001.0605 -118.33789 C -1000.8137 -117.59749 -1001.9034 -115.52708 -1003.4824 -113.73828 L -1006.3535 -110.48633 L -1021.4824 -118.07812 C -1036.9276 -125.82904 -1046.8852 -128.26464 -1054.8965 -126.25391 C -1059.7023 -125.04775 -1065.3982 -119.6275 -1067.0176 -114.7207 C -1068.9972 -108.7225 -1066.8533 -106.49706 -1052.6035 -99.759766 C -1018.3289 -83.554665 -994.73165 -77.643188 -982.68945 -82.242188 C -975.77325 -84.883488 -967.41492 -93.745862 -966.31641 -99.601562 C -963.82992 -112.85586 -980.69849 -128.88948 -1015.7285 -146.57031 C -1032.9814 -155.27844 -1041.2163 -158.56835 -1051.8477 -161 C -1061.0221 -163.0984 -1061.659 -163.55291 -1062.6953 -168.73438 C -1063.3437 -171.976 -1062.6553 -173.47318 -1058.123 -178.69531 C -1045.4245 -193.32623 -1034.2247 -213.99928 -1029.9453 -230.70312 C -1026.9675 -242.32664 -1028.023 -259.15829 -1032.2441 -267.3418 C -1037.429 -277.39415 -1051.4794 -291.41998 -1055.9668 -291.43359 z M -1074.291 -96.888672 C -1075.2894 -96.882172 -1076.0711 -96.560478 -1077.0605 -96.048828 C -1082.1343 -93.425028 -1086.9785 -87.016588 -1086.9785 -82.929688 C -1086.9785 -77.132087 -1075.4118 -70.183283 -1047.0781 -58.958984 C -1021.9631 -49.009784 -1014.4363 -47.704072 -998.77148 -50.576172 C -985.80668 -52.953272 -978.22852 -59.033048 -978.22852 -67.060547 C -978.22852 -70.021947 -978.26852 -70.031291 -992.91602 -69.962891 L -1007.6035 -69.892578 L -1026.9785 -77.066406 C -1037.6348 -81.011706 -1052.5044 -87.288825 -1060.0215 -91.015625 C -1068.8468 -95.391085 -1072.0943 -96.903062 -1074.291 -96.888672 z M -1091.3535 -67.759766 C -1092.9605 -67.806216 -1094.117 -66.569876 -1095.7422 -63.904297 C -1099.2462 -58.157297 -1098.8455 -55.014712 -1094.0684 -50.820312 C -1086.0886 -43.814012 -1054.3587 -28.904541 -1036.9785 -23.994141 C -1026.941 -21.158241 -1012.9738 -21.761731 -1006.0195 -25.332031 C -1001.2854 -27.762431 -996.97852 -33.486056 -996.97852 -37.347656 C -996.97852 -39.218556 -997.98298 -39.369588 -1005.4746 -38.617188 C -1010.4695 -38.115578 -1017.2934 -38.359538 -1022.0371 -39.210938 C -1036.8324 -41.866338 -1074.124 -57.046125 -1086.3535 -65.390625 C -1088.5812 -66.910674 -1090.1036 -67.723646 -1091.3535 -67.759766 z M -1098.1973 -38.197266 C -1099.2423 -38.193966 -1099.8265 -37.616946 -1100.752 -36.691406 C -1104.6016 -32.841806 -1103.8806 -28.684491 -1098.6074 -24.337891 C -1092.2504 -19.097891 -1057.6252 -1.8306375 -1050.7285 -0.4609375 C -1041.4615 1.3794625 -1030.9725 0.19882811 -1027.4863 -3.0761719 C -1022.9549 -7.3331719 -1023.5563 -10.205109 -1029.166 -11.099609 C -1043.9409 -13.455609 -1063.7057 -20.936738 -1085.4395 -32.398438 C -1093.4364 -36.615817 -1096.4557 -38.202726 -1098.1973 -38.197266 z "
       id="path4225"
       inkscape:export-xdpi="33.558979"
       inkscape:export-ydpi="33.558979" />
    <path
       style="fill:url(#linearGradient4240);fill-opacity:1"
       d="m -129.20739,-589.03835 c -16.08024,-0.15816 -32.36241,3.67766 -47.98437,11.74609 -26.39,13.62988 -47.31268,36.3613 -63.23434,68.70118 -9.2443,18.77687 -14.2696,33.47496 -18.9942,55.55078 -3.0897,14.4365 -3.3648,18.03193 -3.3984,44.69922 -0.026,20.51716 0.3912,29.42834 1.4258,30.46289 0.8042,0.80426 11.8241,3.06885 24.4882,5.03125 23.48754,3.63959 78.00543,13.56058 91.55083,16.66015 4.125,0.94392 7.7812,1.76791 8.125,1.83203 0.3437,0.0641 10.1875,-1.86062 21.875,-4.27734 18.629901,-3.85228 92.256151,-16.83398 95.476561,-16.83398 1.48408,0 4.318,-8.7279 7.10156,-21.875 3.2635505,-15.41413 3.9287705,-54.47378 1.20703,-70.88282 -4.19515,-25.29218 -15.90323,-54.40367 -28.80273,-71.61718 -23.8304,-31.80005 -55.90974,-48.87344 -88.835941,-49.19727 z m -56.92969,99.70508 c 7.89072,0.20901 13.84141,10.78769 11.44532,25.50976 -1.3924,8.55539 -3.7983,13.3434 -8.8379,17.58399 -4.448,3.74276 -9.33683,4.18925 -13.55273,1.23633 -4.0825,-2.85952 -6.39648,-9.17738 -6.39648,-17.46485 0,-9.83738 2.25686,-16.38702 7.57226,-21.97461 3.29794,-3.46687 6.68186,-4.97241 9.76953,-4.89062 z m 107.623051,15.11719 c 7.9508,0 12.69141,7.22343 12.69141,19.33789 0,19.76953 -13.87141,33.39224 -23.84571,23.41797 -11.712801,-11.71284 -3.6139,-42.75586 11.1543,-42.75586 z m -103.337891,63.01757 c 0.61488,-0.004 3.72375,1.96735 7.21875,4.59571 15.4097,11.58845 26.20351,14.92031 47.97851,14.8125 8.2774,-0.041 17.86329,-0.54038 21.30079,-1.11133 7.904401,-1.31289 9.046951,-0.60099 5.406251,3.37109 -5.588001,6.09656 -17.151591,12.58522 -26.025401,14.60352 -10.0804,2.29274 -13.61041,2.33821 -21.26171,0.27344 -11.3757,-3.06985 -23.67597,-14.33475 -31.35157,-28.7129 -2.1362,-4.00156 -3.64471,-7.51347 -3.35351,-7.80468 0.0182,-0.0182 0.0469,-0.0271 0.0879,-0.0274 z m -291.94918,19.48243 c -0.9504,0 -1.0894,58.3339 -0.4785,200.89062 l 0.8613,200.888667 2.7305,2.90625 c 4.0375,4.2977 33.1348,18.234984 50.334,24.109384 28.428,9.7096 54.187,14.85185 90.9843,18.16015 44.0743,3.9626 109.53063,13.17328 154.01563,21.67188 10.3125,1.9701 19.3125,3.45935 20,3.31055 0.8255,-0.1786 1.3575,-69.400414 1.5664,-203.849611 0.1739,-111.96877 -0.12943,-204.02592 -0.67383,-204.57032 -2.3622,-2.3622 -77.48547,-15.74169 -117.7676,-20.97461 -10.6563,-1.38431 -32.875,-3.90895 -49.375,-5.61132 -36.0023,-3.71451 -60.9358,-7.81477 -84.7754,-13.93946 -19.2919,-4.95633 -45.0309,-13.54566 -57.9277,-19.33203 -4.4857,-2.01261 -8.7575,-3.66015 -9.4941,-3.66015 z m 668.80075,0.83789 c -1.47811,0.0299 -6.38564,1.69434 -11.8457,4.0625 -16.2921,7.06628 -34.57632,13.10638 -56.70117,18.72851 -25.0425,6.36351 -43.098009,9.34828 -80.251969,13.26953 -33.10697,3.49412 -64.94079,7.7489 -94.05468,12.57227 -23.8075,3.94425 -70.368601,12.99774 -74.062501,14.40039 l -2.8125,1.06836 0,202.94726 c 0,111.621197 0.37363,203.322951 0.83203,203.781251 1.3858,1.3858 4.19454,1.02693 32.527341,-4.14257 50.8381,-9.2757 100.1912405,-16.24775 146.64063,-20.71875 35.22502,-3.3906 61.280919,-8.73767 88.222659,-18.10157 13.07415,-4.544 42.00734,-18.532164 47.40235,-22.917974 l 3.75,-3.04882 0.83984,-200.431637 c 0.46267,-110.23732 0.43049,-200.85755 -0.0723,-201.37891 -0.0629,-0.0652 -0.2029,-0.0941 -0.41406,-0.0898 z m -58.35742,66.28125 c 0.20628,-0.009 0.33987,0.01 0.39062,0.0605 1.26578,1.26576 0.80646,26.60738 -0.52734,29.09961 -1.42498,2.66261 -15.89326,7.64248 -39.470709,13.58594 -20.27947,5.11211 -38.98931,8.35964 -65.25586,11.32617 -25.2607295,2.85294 -44.78129,6.08527 -69.00781,11.42578 -16.312,3.59585 -42.45468,10.23523 -46.67188,11.85352 -1.2074,0.46335 -2.27925,0.0911 -2.59375,-0.90234 -1.0425,-3.29224 -1.71569,-26.97958 -0.80859,-28.44727 2.6542,-4.29459 68.87843,-17.05108 114.44922,-22.04492 32.84146,-3.5989 67.49697,-11.55877 97.312499,-22.35157 5.69534,-2.06162 10.73964,-3.53991 12.1836,-3.60546 z m -431.61133,19.3125 c 2.2267,0.0166 5.1267,1.21135 10.2344,3.76367 14.4763,7.23393 27.249,22.87301 31.9258,39.09179 3.22,11.1665 2.0275,29.26641 -2.8692,43.56446 -3.9736,11.60259 -12.4184,27.18386 -20.6367,38.07226 -2.7182,3.60143 -4.6685,7.26573 -4.332,8.14258 0.3365,0.87686 4.5689,2.86842 9.4043,4.42578 11.2242,3.61498 32.8192,14.20644 47.57808,23.33594 32.9107,20.35773 42.39087,40.93582 27.76367,60.261718 -4.3856,5.7944 -4.82812,7.08501 -4.82812,14.03711 0,9.954899 -3.88821,17.984559 -11.47461,23.697259 -4.6078,3.4697 -5.88589,5.35357 -7.21289,10.63477 -2.8947,11.5201 -11.18323,20.49718 -21.48633,23.27148 -4.036,1.0868 -4.72,1.87911 -6.1074,7.0664104 -2.2324,8.3466 -8.9584,14.71236 -17.4688,16.5351596 -7.37,1.5786 -9.3564,1.58778 -18.3515,0.08398 -3.4239,-0.5723 -10.1739,-2.4273496 -15,-4.1230496 -6.9207,-2.4317 -12.2067,-3.22868 -25.0235,-3.77148 -8.9375,-0.3784 -19.1053,-1.54329 -22.5937,-2.58789002 C -359.6114,-4.0239926 -379.151,-20.432453 -394.8382,-41.259053 l -8.6016,-11.41993 -20.332,-0.6875 c -11.1829,-0.37789 -21.9405,-0.70561 -23.9063,-0.72851 -5.409,-0.063 -6.54,-1.74381 -8.7031,-12.945309 -4.7709,-24.705501 -5.6574,-40.359008 -3.2851,-58.021488 1.4994,-11.16265 6.7893,-31.77571 9.5,-37.01758 l 1.8261,-3.53125 27.1172,0.74805 27.1191,0.74805 21.9375,-23.48828 c 17.0291,-18.23261 26.1192,-26.76236 40.625,-38.125 20.5381,-16.08793 21.7234,-17.67587 25.0176,-33.47461 0.9817,-4.70857 2.3173,-16.05446 2.9668,-25.21485 1.0489,-14.7925 1.4839,-16.90114 3.8926,-18.85156 1.6396,-1.32771 2.9634,-2.02853 4.6953,-2.01562 z m 5.0019,13.85156 c -0.2991,-9.1e-4 -0.5549,0.0605 -0.7636,0.18945 -0.6318,0.39047 -1.5488,5.64722 -2.0371,11.68164 -1.1325,13.99664 -3.9546,28.89732 -7.0293,37.11524 -2.8059,7.49934 -7.8416,12.6392 -25.5567,26.07812 -11.6468,8.83539 -31.8158,28.43844 -54.7968,53.26172 l -9.7051,10.48242 -25.8145,-0.48242 -25.8144,-0.48437 -2.2969,7.5 c -4.6509,15.18674 -6.2895,29.0064 -5.4843,46.249997 0.6623,14.185101 3.1502,32.168251 4.6562,33.656251 0.7577,0.748699 20.0514,1.809229 34.4629,1.894529 l 12.7089,0.07422 6.8653,9.79687 c 14.0869,20.1036 29.1465,34.77501 42.6054,41.50781 7.0337,3.5186004 14.4883,4.8866104 14.4883,2.65821 0,-0.571 -2.5378,-2.86109 -5.6386,-5.08789 -3.1008,-2.2268 -6.5379,-5.78927 -7.6387,-7.91797 -2.6725,-5.1681 -1.7036,-12.88769 2.4023,-19.14649 2.9607,-4.5132 3.1164,-5.37942 1.8262,-10.14062 -1.7998,-6.6419 0.031,-13.238329 5.7539,-20.736329 2.7812,-3.6436 4.4092,-7.43041 4.9766,-11.57031 1.0559,-7.703301 5.365,-14.322021 12.539,-19.257818 4.6516,-3.2004 5.6975,-4.68519 6.4395,-9.15039 1.8517,-11.14434 7.6791,-18.43608 17.7422,-22.20117 9.0261,-3.37709 17.2294,-3.15001 29.207,0.8086 10.1723,3.36201 29.9888,13.8569 30.8086,16.3164 0.2468,0.7404 -0.8429,2.81081 -2.4219,4.59961 l -2.8711,3.25195 -15.1289,-7.59179 c -15.4452,-7.75092 -25.4027,-10.18651 -33.414,-8.17578 -4.8058,1.20616 -10.5017,6.6264 -12.1211,11.5332 -1.9796,5.9982 0.1642,8.22364 14.414,14.960937 34.2746,16.205101 57.87189,22.116571 69.91409,17.517571 6.9162,-2.6413 15.27454,-11.503671 16.37305,-17.359371 2.48649,-13.254297 -14.38211,-29.287917 -49.41214,-46.968747 -17.2529,-8.70813 -25.4877,-11.99804 -36.1191,-14.42969 -9.1744,-2.0984 -9.8114,-2.55291 -10.8477,-7.73437 -0.6484,-3.24162 0.04,-4.73881 4.5723,-9.96094 12.6985,-14.63092 23.8983,-35.30397 28.1777,-52.00781 2.9778,-11.62352 1.9223,-28.45516 -2.2988,-36.63867 -5.1849,-10.05235 -19.2353,-24.07819 -23.7227,-24.0918 z m 426.17584,23.47851 c 1.15917,-0.007 1.55716,3.61826 1.54296,14.05079 -0.01,7.73437 -0.46309,14.7625 -1.00585,15.61718 -2.05251,3.23202 -35.0212,12.86027 -62.724619,18.31836 -8.59375,1.69313 -26.03125,4.26987 -38.75,5.72461 -37.7921395,4.32258 -64.01756,9.20578 -101.00196,18.81055 -10.5198,2.73196 -19.6605,4.9668 -20.3125,4.9668 -0.6521,0 -1.18554,-4.42969 -1.18554,-9.84375 0,-5.41406 -0.31673,-11.46094 -0.70313,-13.4375 -1.1585,-5.92538 1.47869,-7.85275 15.12109,-11.05469 32.1141,-7.53737 64.2088405,-13.08418 98.08204,-16.95117 12.71875,-1.45199 27.625,-3.47249 33.125,-4.49024 15.89389,-2.9411 46.236339,-11.0908 61.874999,-16.61914 7.90626,-2.7949 15.07813,-5.0859 15.93751,-5.0918 z m 0.76171,56.23829 c 1.57198,0 0.863,28.19212 -0.76171,30.2871 -2.0852,2.68876 -29.02821,11.12362 -50.501969,15.81055 -17.42945,3.80419 -29.09895,5.58923 -66.32617,10.14258 -24.7381395,3.02579 -51.69182,8.23551 -81.01562,15.66016 -12.1636,3.07978 -22.83449,5.59961 -23.7129,5.59961 -1.16219,0 -1.7497,-3.65855 -2.1582,-13.4375 -0.3088,-7.39063 -0.12264,-14.32686 0.41406,-15.41407 0.6694,-1.35613 7.37473,-3.39758 21.35743,-6.5039 36.3481,-8.07489 53.26276,-10.9607 89.13086,-15.20703 40.68917,-4.81709 63.96429,-9.94505 96.386709,-21.23243 9.01307,-3.13778 16.74745,-5.70507 17.18751,-5.70507 z m -2.01757,114.482417 c 3.72052,-0.0074 2.81145,3.81126 2.79882,13.185541 -0.01,7.8146 -0.4324,14.82759 -0.9375,15.58399 -1.56731,2.3473 -5.34297,3.826299 -23.19922,9.095699 -23.481309,6.9295 -49.428279,12.03351 -77.093749,15.16211 -37.02378951,4.1869 -77.7725,11.92165 -108.9961,20.68945 -15.5661,4.3711 -14.7539,4.74274 -14.7539,-6.79296 0,-5.414 -0.31673,-11.4609 -0.70313,-13.4375 -0.4076,-2.0848 -0.014,-4.5098 0.9375,-5.77539 3.1737,-4.22171 68.39277,-17.159749 108.51563,-21.527349 36.61732,-3.986 64.35954,-9.91481 93.749999,-20.037111 11.09368,-3.82077 16.7879,-6.14073 19.68165,-6.14648 z m -443.24418,0.3457 c -0.9984,0.0065 -1.7801,0.32819 -2.7695,0.83984 -5.0738,2.6238 -9.918,9.03224 -9.918,13.119141 0,5.7976 11.5667,12.74641 39.9004,23.970709 25.115,9.9492 32.6418,11.25491 48.30666,8.38281 12.9648,-2.3771 20.54297,-8.45687 20.54297,-16.484369 0,-2.9614 -0.04,-2.97075 -14.6875,-2.90235 l -14.68753,0.07031 -19.375,-7.17382 c -10.6563,-3.9453 -25.5258,-10.222421 -33.0429,-13.949221 -8.8253,-4.37546 -12.0729,-5.88744 -14.2696,-5.87305 z m -17.0625,29.128911 c -1.607,-0.04645 -2.7634,1.18989 -4.3886,3.855469 -3.504,5.747 -3.1033,8.88958 1.6738,13.08398 7.9798,7.0063 39.7096,21.91577 57.0898,26.82617 10.0375,2.8359 24.0047,2.23241 30.959,-1.33789 4.7341,-2.4304 9.04103,-8.15402 9.04103,-12.01562 0,-1.8709 -1.0045,-2.02194 -8.49613,-1.26954 -4.9949,0.50161 -11.8188,0.25766 -16.5625,-0.59374 -14.7953,-2.6554 -52.0869,-17.83519 -64.3164,-26.17969 -2.2277,-1.520049 -3.7501,-2.333019 -5,-2.369139 z m 461.67777,26.742179 c 0.19405,-0.0071 0.33058,0.01034 0.40234,0.05469 1.72103,1.0637 1.26354,27.2286 -0.51757,29.5918 -2.92698,3.8836004 -40.428599,14.6107704 -68.437509,19.5761704 -7.90625,1.4016 -24.76843,3.7103596 -37.47071,5.1308596 -24.9638995,2.7917 -47.53235,6.66011 -73.15429,12.537114 -15.7173,3.6051 -37.41339,9.23738 -41.23829,10.70508 -1.0259,0.3937 -2.10774,-0.0462 -2.40234,-0.97656 -0.803,-2.5358 -1.72975,-26.4574336 -1.09375,-28.2324336 0.3035,-0.8472 2.89898,-2.17366 5.76758,-2.94726 20.8554,-5.6246 67.60605,-14.4801704 91.4668005,-17.3261704 35.7045095,-4.2587 43.9269095,-5.43808 57.8574195,-8.29688 17.7089,-3.6342 45.058339,-11.42869 58.742199,-16.74219 4.54194,-1.76365 8.71974,-3.02426 10.07812,-3.07422 z m -468.52147,2.82032 c -1.045,0.0033 -1.6292,0.58032 -2.5547,1.50586 -3.8496,3.8496 -3.1287,8.00691 2.1445,12.35351 6.357,5.24 40.9822,22.5072604 47.8789,23.87696038 9.267,1.84040002 19.756,0.65976 23.2422,-2.61523998 4.5314,-4.257 3.93,-7.1289404 -1.6797,-8.0234404 -14.7749,-2.356 -34.5396,-9.83712 -56.2734,-21.29882 -7.9969,-4.21738 -11.0162,-5.80429 -12.7578,-5.79883 z"
       id="path4236"
       inkscape:connector-curvature="0" />
    <path
       id="path4238"
       d="m -473.8008,-391.7168 c -0.9504,0 -1.0894,58.33391 -0.4785,200.89063 l 0.8613,200.88867 2.7305,2.90625 c 4.0375,4.2977 33.1348,18.234975 50.334,24.109375 28.428,9.7096 54.1871,14.851856 90.9844,18.160156 44.0743,3.9626 109.53058,13.173275 154.01558,21.671875 10.3125,1.9701 19.3125,3.459347 20,3.310547 0.8255,-0.1786 1.35751,-69.400412 1.56641,-203.849613 0.1739,-111.96877 -0.12943,-204.02591 -0.67383,-204.57031 -2.3622,-2.3622 -77.48545,-15.74169 -117.76756,-20.97461 -10.6563,-1.38431 -32.875,-3.90896 -49.375,-5.61133 -36.0023,-3.71451 -60.9358,-7.81476 -84.7754,-13.93945 -19.2919,-4.95633 -45.0309,-13.54566 -57.9277,-19.33203 -4.4857,-2.01261 -8.7576,-3.66016 -9.4942,-3.66016 z m 178.832,86.43164 c 2.2267,0.0166 5.1267,1.21136 10.2344,3.76368 14.4763,7.23393 27.249,22.87301 31.9258,39.09179 3.22,11.1665 2.0276,29.26641 -2.8691,43.56446 -3.9736,11.60259 -12.4185,27.18386 -20.6368,38.07226 -2.7182,3.60143 -4.6685,7.26573 -4.332,8.14258 0.3365,0.87686 4.5689,2.86842 9.4043,4.42578 11.2242,3.61498 32.8193,14.20644 47.57814,23.33594 32.9107,20.35773 42.39087,40.93582 27.76367,60.261717 -4.3856,5.7944 -4.82813,7.085009 -4.82813,14.037109 0,9.954899 -3.8882,17.984566 -11.4746,23.697266 -4.6078,3.4697 -5.8859,5.353566 -7.2129,10.634766 -2.8947,11.520099 -11.18322,20.497184 -21.48628,23.271484 -4.036,1.0868 -4.7201,1.879106 -6.1075,7.0664061 -2.2324,8.3466 -8.9583,14.7123567 -17.4687,16.5351559 -7.37,1.5786 -9.3565,1.587785 -18.3516,0.08399 -3.4239,-0.5723 -10.1739,-2.4273471 -15,-4.1230471 -6.9207,-2.4317 -12.2066,-3.2286844 -25.0234,-3.7714844 -8.9375,-0.3784 -19.1054,-1.5432906 -22.5938,-2.58789062 -14.1638,-4.24149998 -33.7034,-20.64996288 -49.3906,-41.47656288 l -8.6016,-11.419922 -20.332,-0.6875 c -11.1829,-0.37789 -21.9404,-0.705615 -23.9062,-0.728515 -5.409,-0.063 -6.5401,-1.743814 -8.7032,-12.945313 -4.7709,-24.705501 -5.6574,-40.359004 -3.2851,-58.021484 1.4994,-11.16265 6.7893,-31.77571 9.5,-37.01758 l 1.8262,-3.53125 27.1171,0.74805 27.1192,0.74805 21.9375,-23.48829 c 17.0291,-18.23261 26.1192,-26.76236 40.625,-38.125 20.5381,-16.08793 21.7234,-17.67586 25.0176,-33.4746 0.9817,-4.70858 2.3173,-16.05446 2.9668,-25.21485 1.0489,-14.7925 1.4838,-16.90114 3.8925,-18.85156 1.6396,-1.32771 2.9634,-2.02854 4.6953,-2.01563 z m 5.002,13.85157 c -0.2991,-9.1e-4 -0.555,0.0605 -0.7637,0.18945 -0.6318,0.39047 -1.5488,5.64722 -2.0371,11.68164 -1.1325,13.99664 -3.9546,28.89731 -7.0293,37.11523 -2.8059,7.49934 -7.8415,12.63921 -25.5566,26.07813 -11.6468,8.83539 -31.8159,28.43844 -54.7969,53.26172 l -9.7051,10.48242 -25.8144,-0.48242 -25.8145,-0.48438 -2.2968,7.5 c -4.651,15.18674 -6.2896,29.00641 -5.4844,46.250003 0.6623,14.185101 3.1502,32.16825 4.6562,33.65625 0.7577,0.748699 20.0514,1.809231 34.4629,1.894531 l 12.709,0.07422 6.8652,9.796875 c 14.0869,20.1036 29.1466,34.775013 42.6055,41.507813 7.0337,3.5186 14.4883,4.8866032 14.4883,2.658203 0,-0.571 -2.5379,-2.861091 -5.6387,-5.087891 -3.1008,-2.2268 -6.5379,-5.789269 -7.6387,-7.917969 -2.6725,-5.1681 -1.7035,-12.887684 2.4024,-19.146484 2.9607,-4.5132 3.1164,-5.379425 1.8262,-10.140625 -1.7998,-6.6419 0.031,-13.238328 5.7539,-20.736328 2.7812,-3.6436 4.4091,-7.430413 4.9765,-11.570313 1.0559,-7.703301 5.3651,-14.322015 12.5391,-19.257814 4.6516,-3.2004 5.6974,-4.68519 6.4394,-9.15039 1.8517,-11.14434 7.6791,-18.43608 17.7422,-22.20117 9.0261,-3.37709 17.2295,-3.15002 29.2071,0.80859 10.1723,3.36201 29.9888,13.85691 30.8086,16.31641 0.2468,0.7404 -0.8429,2.81081 -2.4219,4.59961 l -2.8711,3.25195 -15.1289,-7.59179 c -15.4452,-7.75092 -25.4028,-10.18652 -33.4141,-8.17579 -4.8058,1.20616 -10.5017,6.62641 -12.1211,11.53321 -1.9796,5.9982 0.1643,8.22364 14.4141,14.960934 34.2746,16.205101 57.87185,22.116578 69.91405,17.517578 6.9162,-2.6413 15.27453,-11.503674 16.37304,-17.359374 2.48649,-13.254298 -14.38208,-29.287918 -49.41209,-46.968748 -17.2529,-8.70813 -25.4878,-11.99804 -36.1192,-14.42969 -9.1744,-2.0984 -9.8113,-2.55291 -10.8476,-7.73438 -0.6484,-3.24162 0.04,-4.7388 4.5723,-9.96093 12.6985,-14.63092 23.8983,-35.30397 28.1777,-52.00781 2.9778,-11.62352 1.9223,-28.45517 -2.2988,-36.63868 -5.1849,-10.05235 -19.2353,-24.07818 -23.7227,-24.09179 z m -18.3242,194.544918 c -0.9984,0.0065 -1.7801,0.328194 -2.7695,0.839844 -5.0738,2.6238 -9.918,9.03224 -9.918,13.11914 0,5.797601 11.5667,12.746405 39.9004,23.970704 25.115,9.9492 32.6418,11.254912 48.30662,8.382812 12.9648,-2.3771 20.54296,-8.456876 20.54296,-16.484375 0,-2.9614 -0.04,-2.970744 -14.6875,-2.902344 l -14.68748,0.07031 -19.375,-7.173828 c -10.6563,-3.9453 -25.5259,-10.222419 -33.043,-13.949219 -8.8253,-4.37546 -12.0728,-5.887437 -14.2695,-5.873047 z m -17.0625,29.128906 c -1.607,-0.04645 -2.7635,1.18989 -4.3887,3.855469 -3.504,5.747 -3.1033,8.889585 1.6738,13.083985 7.9798,7.0063 39.7097,21.915771 57.0899,26.826171 10.0375,2.8359 24.0047,2.23241 30.959,-1.33789 4.7341,-2.4304 9.04098,-8.154025 9.04098,-12.015625 0,-1.8709 -1.00446,-2.021932 -8.49608,-1.269532 -4.9949,0.50161 -11.8188,0.25765 -16.5625,-0.59375 -14.7953,-2.6554 -52.0869,-17.835187 -64.3164,-26.179687 -2.2277,-1.520049 -3.7501,-2.333021 -5,-2.369141 z m -6.8438,29.5625 c -1.045,0.0033 -1.6292,0.58032 -2.5547,1.50586 -3.8496,3.8496 -3.1286,8.006915 2.1446,12.353515 6.357,5.24 40.9822,22.5072535 47.8789,23.8769535 9.267,1.8404 19.756,0.65976561 23.2422,-2.6152344 4.5314,-4.257 3.93,-7.1289371 -1.6797,-8.0234371 -14.7749,-2.356 -34.5397,-9.837129 -56.2735,-21.298829 -7.9969,-4.217379 -11.0162,-5.804288 -12.7578,-5.798828 z"
       style="fill:url(#linearGradient4242);fill-opacity:1;fill-rule:evenodd;stroke:none;stroke-width:1px;stroke-linecap:butt;stroke-linejoin:miter;stroke-opacity:1"
       inkscape:connector-curvature="0" />
  </g>
</svg>
