<?xml version="1.0" encoding="UTF-8" standalone="no"?>
<!-- Created with Inkscape (http://www.inkscape.org/) -->

<svg
   xmlns:osb="http://www.openswatchbook.org/uri/2009/osb"
   xmlns:dc="http://purl.org/dc/elements/1.1/"
   xmlns:cc="http://creativecommons.org/ns#"
   xmlns:rdf="http://www.w3.org/1999/02/22-rdf-syntax-ns#"
   xmlns:svg="http://www.w3.org/2000/svg"
   xmlns="http://www.w3.org/2000/svg"
   xmlns:xlink="http://www.w3.org/1999/xlink"
   xmlns:sodipodi="http://sodipodi.sourceforge.net/DTD/sodipodi-0.dtd"
   xmlns:inkscape="http://www.inkscape.org/namespaces/inkscape"
   sodipodi:docname="fond.svg"
   inkscape:version="0.91 r13725"
   version="1.1"
   id="svg2"
   viewBox="0 0 744.09448819 1052.3622047"
   height="297mm"
   width="210mm">
  <sodipodi:namedview
     inkscape:window-maximized="1"
     inkscape:window-y="1"
     inkscape:window-x="0"
     inkscape:window-height="1091"
     inkscape:window-width="1920"
     inkscape:object-paths="true"
     inkscape:snap-intersection-paths="false"
     inkscape:guide-bbox="true"
     inkscape:object-nodes="true"
     inkscape:bbox-nodes="false"
     inkscape:snap-bbox="true"
     showguides="false"
     showgrid="false"
     inkscape:current-layer="layer1"
     inkscape:document-units="px"
     inkscape:cy="-1398.4751"
     inkscape:cx="836.90084"
     inkscape:zoom="0.35355339"
     inkscape:pageshadow="2"
     inkscape:pageopacity="0.0"
     borderopacity="1.0"
     bordercolor="#666666"
     pagecolor="#ffffff"
     id="base"
     inkscape:snap-object-midpoints="true"
     inkscape:snap-bbox-midpoints="true"
     inkscape:snap-center="true"
     inkscape:snap-global="false" />
  <defs
     id="defs4">
    <linearGradient
       id="linearGradient5087"
       osb:paint="solid">
      <stop
         style="stop-color:#d4d2d7;stop-opacity:1;"
         offset="0"
         id="stop5089" />
    </linearGradient>
    <linearGradient
       id="linearGradient5081"
       osb:paint="solid">
      <stop
         style="stop-color:#d4d2d7;stop-opacity:1;"
         offset="0"
         id="stop5083" />
    </linearGradient>
    <linearGradient
       id="linearGradient5075"
       osb:paint="solid">
      <stop
         style="stop-color:#000000;stop-opacity:1;"
         offset="0"
         id="stop5077" />
    </linearGradient>
    <linearGradient
       id="linearGradient4930"
       osb:paint="solid">
      <stop
         style="stop-color:#a02c2c;stop-opacity:1;"
         offset="0"
         id="stop4932" />
    </linearGradient>
    <linearGradient
       id="linearGradient4924"
       osb:paint="solid">
      <stop
         style="stop-color:#000000;stop-opacity:1;"
         offset="0"
         id="stop4926" />
    </linearGradient>
    <linearGradient
       id="linearGradient4916"
       osb:paint="solid">
      <stop
         style="stop-color:#ffffff;stop-opacity:1;"
         offset="0"
         id="stop4918" />
    </linearGradient>
    <linearGradient
       osb:paint="solid"
       id="linearGradient4420">
      <stop
         id="stop4422"
         offset="0"
         style="stop-color:#d4d2d7;stop-opacity:1;" />
    </linearGradient>
    <linearGradient
       osb:paint="solid"
       id="linearGradient4414">
      <stop
         id="stop4416"
         offset="0"
         style="stop-color:#d4d2d7;stop-opacity:0.47843137;" />
    </linearGradient>
    <linearGradient
       osb:paint="solid"
       id="linearGradient4404">
      <stop
         id="stop4406"
         offset="0"
         style="stop-color:#db9e36;stop-opacity:1;" />
    </linearGradient>
    <linearGradient
       osb:paint="solid"
       id="linearGradient4398">
      <stop
         id="stop4400"
         offset="0"
         style="stop-color:#ffd34e;stop-opacity:1;" />
    </linearGradient>
    <linearGradient
       gradientUnits="userSpaceOnUse"
       y2="327.90143"
       x2="-1145.8793"
       y1="327.90143"
       x1="-1860.8702"
       id="linearGradient4418"
       xlink:href="#linearGradient4420"
       inkscape:collect="always"
       gradientTransform="matrix(0.83930166,0,0,0.83930166,-1536.5873,1593.6779)" />
    <linearGradient
       gradientUnits="userSpaceOnUse"
       y2="-27.226433"
       x2="-1325.8107"
       y1="-27.226433"
       x1="-1680.9388"
       id="linearGradient4424"
       xlink:href="#linearGradient4420"
       inkscape:collect="always"
       gradientTransform="matrix(0.78298395,0,0,0.78298395,-1621.2539,1592.1445)" />
    <linearGradient
       y2="574.12338"
       x2="-1503.3747"
       y1="574.12338"
       x1="-1953.2032"
       gradientUnits="userSpaceOnUse"
       id="linearGradient4734"
       xlink:href="#linearGradient4404"
       inkscape:collect="always" />
    <linearGradient
       y2="574.12338"
       x2="-1053.5462"
       y1="574.12338"
       x1="-1503.3747"
       gradientUnits="userSpaceOnUse"
       id="linearGradient4736"
       xlink:href="#linearGradient4398"
       inkscape:collect="always" />
    <linearGradient
       inkscape:collect="always"
       xlink:href="#linearGradient4420"
       id="linearGradient4854"
       gradientUnits="userSpaceOnUse"
       x1="-1860.8702"
       y1="327.90143"
       x2="-1145.8793"
       y2="327.90143"
       gradientTransform="translate(-1240,0)" />
    <linearGradient
       inkscape:collect="always"
       xlink:href="#linearGradient4404"
       id="linearGradient4856"
       gradientUnits="userSpaceOnUse"
       x1="-1953.2032"
       y1="574.12338"
       x2="-1503.3747"
       y2="574.12338" />
    <linearGradient
       inkscape:collect="always"
       xlink:href="#linearGradient4398"
       id="linearGradient4858"
       gradientUnits="userSpaceOnUse"
       x1="-1503.3747"
       y1="574.12338"
       x2="-1053.5462"
       y2="574.12338" />
    <linearGradient
       inkscape:collect="always"
       xlink:href="#linearGradient4420"
       id="linearGradient4860"
       gradientUnits="userSpaceOnUse"
       x1="-1680.9388"
       y1="-27.226433"
       x2="-1325.8107"
       y2="-27.226433"
       gradientTransform="translate(-1240,0)" />
    <linearGradient
       inkscape:collect="always"
       xlink:href="#linearGradient4404"
       id="linearGradient4862"
       gradientUnits="userSpaceOnUse"
       x1="-1953.2032"
       y1="574.12338"
       x2="-1503.3747"
       y2="574.12338" />
    <linearGradient
       inkscape:collect="always"
       xlink:href="#linearGradient4398"
       id="linearGradient4864"
       gradientUnits="userSpaceOnUse"
       x1="-1503.3747"
       y1="574.12338"
       x2="-1053.5462"
       y2="574.12338" />
    <linearGradient
       inkscape:collect="always"
       xlink:href="#linearGradient4404"
       id="linearGradient5085"
       x1="-1253.8105"
       y1="1521.7808"
       x2="-812"
       y2="1521.7808"
       gradientUnits="userSpaceOnUse" />
    <linearGradient
       inkscape:collect="always"
       xlink:href="#linearGradient4398"
       id="linearGradient5091"
       x1="-812"
       y1="1521.7808"
       x2="-370.18945"
       y2="1521.7808"
       gradientUnits="userSpaceOnUse" />
    <clipPath
       clipPathUnits="userSpaceOnUse"
       id="clipPath4229">
      <g
         transform="matrix(-1.0277115,0,0,1.0277115,-2362.6016,961.96226)"
         id="g4231"
         style="font-style:normal;font-weight:normal;font-size:624.19854736px;line-height:125%;font-family:sans-serif;letter-spacing:0px;word-spacing:0px;fill:#ffffff;fill-opacity:1;stroke:none;stroke-width:1px;stroke-linecap:butt;stroke-linejoin:miter;stroke-opacity:1">
        <path
           sodipodi:nodetypes="ccccccccccc"
           inkscape:connector-curvature="0"
           id="path4233"
           style="font-style:normal;font-variant:normal;font-weight:bold;font-stretch:normal;font-family:'Oriya Sangam MN';-inkscape-font-specification:'Oriya Sangam MN Bold';fill:#ffffff;fill-opacity:1"
           d="m -1364.4894,458.0741 -204.1129,0 0,111.73154 127.5187,0 49.7537,50.56008 -177.2724,0 0,176.02399 -58.0504,-52.3259 0,-337.17399 211.0249,0 z" />
      </g>
    </clipPath>
    <linearGradient
       inkscape:collect="always"
       xlink:href="#linearGradient4404"
       id="linearGradient4239"
       gradientUnits="userSpaceOnUse"
       x1="-1253.8105"
       y1="1521.7808"
       x2="-812"
       y2="1521.7808"
       gradientTransform="matrix(0.67902407,0,0,0.74507042,1549.557,1318.5935)" />
    <linearGradient
       inkscape:collect="always"
       xlink:href="#linearGradient4398"
       id="linearGradient4241"
       gradientUnits="userSpaceOnUse"
       x1="-812"
       y1="1521.7808"
       x2="-370.18945"
       y2="1521.7808"
       gradientTransform="matrix(0.67902407,0,0,0.74507042,1549.557,1318.5935)" />
    <filter
       inkscape:collect="always"
       style="color-interpolation-filters:sRGB"
       id="filter4952"
       x="-0.2868"
       width="1.5736"
       y="-0.2868"
       height="1.5736">
      <feGaussianBlur
         inkscape:collect="always"
         stdDeviation="79.091305"
         id="feGaussianBlur4954" />
    </filter>
  </defs>
  <metadata
     id="metadata7">
    <rdf:RDF>
      <cc:Work
         rdf:about="">
        <dc:format>image/svg+xml</dc:format>
        <dc:type
           rdf:resource="http://purl.org/dc/dcmitype/StillImage" />
        <dc:title />
      </cc:Work>
    </rdf:RDF>
  </metadata>
  <g
     id="layer1"
     inkscape:groupmode="layer"
     inkscape:label="Calque 1">
    <circle
       style="opacity:0.608;fill:#ffffff;fill-opacity:1;filter:url(#filter4952)"
       id="path4930"
       cx="998.18951"
       cy="2489.2031"
       r="330.92596"
       inkscape:export-xdpi="13.826342"
       inkscape:export-ydpi="13.826342" />
    <path
       id="circle4412"
       d="m -2675.9917,1702.1363 a 162.71408,199.59589 0 0 1 -122.3807,68.2867 162.71408,199.59589 0 0 1 -122.238,-68.2375 300.04655,182.80986 0 0 0 -177.8091,166.7013 300.04655,182.80986 0 0 0 300.0471,182.8088 300.04655,182.80986 0 0 0 300.0471,-182.8088 300.04655,182.80986 0 0 0 -177.6664,-166.7505 z"
       style="opacity:0.11799999;fill:url(#linearGradient4418);fill-opacity:1;stroke:none"
       inkscape:connector-curvature="0"
       inkscape:export-xdpi="26.313948"
       inkscape:export-ydpi="26.313948" />
    <ellipse
       ry="170.54321"
       rx="139.0298"
       cy="1570.8267"
       cx="-2798.3723"
       id="path4410"
       style="opacity:0.11799999;fill:url(#linearGradient4424);fill-opacity:1;stroke:none"
       inkscape:export-xdpi="26.313948"
       inkscape:export-ydpi="26.313948" />
    <rect
       inkscape:export-ydpi="76.011894"
       inkscape:export-xdpi="76.011894"
       y="86.782806"
       x="-31.559526"
       height="473.41171"
       width="525.70721"
       id="rect4177"
       style="fill:none;fill-opacity:0.4790419;stroke:none" />
    <path
       inkscape:export-ydpi="208.59625"
       inkscape:export-xdpi="208.59625"
       sodipodi:nodetypes="cccc"
       inkscape:connector-curvature="0"
       id="path4161"
       d="m 292.67153,365.44439 82.59,82.59 -82.59,82.58998 z"
       style="fill:#d4d2d7;fill-opacity:0.4790419;fill-rule:evenodd;stroke:none;stroke-width:0.38329154px;stroke-linecap:butt;stroke-linejoin:miter;stroke-opacity:1;opacity:0.528" />
    <path
       inkscape:export-ydpi="208.59625"
       inkscape:export-xdpi="208.59625"
       sodipodi:nodetypes="cccc"
       inkscape:connector-curvature="0"
       id="path4157"
       d="m 339.21835,-60.304448 -189.601,189.601008 189.601,189.601 z"
       style="opacity:0.33700005;fill:#d4d2d7;fill-opacity:0.4790419;fill-rule:evenodd;stroke:none;stroke-width:0.38329154px;stroke-linecap:butt;stroke-linejoin:miter;stroke-opacity:1" />
    <path
       inkscape:export-ydpi="208.59625"
       inkscape:export-xdpi="208.59625"
       sodipodi:nodetypes="cccc"
       inkscape:connector-curvature="0"
       id="rect3336"
       d="m 256.62835,236.30756 82.59,82.59 -82.59,82.59 z"
       style="fill:#d4d2d7;fill-opacity:0.4790419;fill-rule:evenodd;stroke:none;stroke-width:0.38329154px;stroke-linecap:butt;stroke-linejoin:miter;stroke-opacity:1;opacity:1" />
    <path
       inkscape:export-ydpi="208.59625"
       inkscape:export-xdpi="208.59625"
       style="fill:#db9e36;fill-opacity:1;fill-rule:evenodd;stroke:none;stroke-width:0.38329154px;stroke-linecap:butt;stroke-linejoin:miter;stroke-opacity:1"
       d="m 375.26153,282.85438 -82.59,82.59001 82.59,82.59 z"
       id="path4139"
       inkscape:connector-curvature="0"
       sodipodi:nodetypes="cccc" />
    <path
       inkscape:export-ydpi="208.59625"
       inkscape:export-xdpi="208.59625"
       style="fill:#d4d2d7;fill-opacity:0.4790419;fill-rule:evenodd;stroke:none;stroke-width:0.38329154px;stroke-linecap:butt;stroke-linejoin:miter;stroke-opacity:1;opacity:0.163"
       d="M 292.67153,365.44439 347.41,420.18285 292.67153,474.9213 Z"
       id="path4141"
       inkscape:connector-curvature="0"
       sodipodi:nodetypes="cccc" />
    <path
       inkscape:export-ydpi="208.59625"
       inkscape:export-xdpi="208.59625"
       sodipodi:nodetypes="cccc"
       inkscape:connector-curvature="0"
       id="path4143"
       d="m 292.67153,365.44439 -36.3073,36.30729 36.3073,36.30728 z"
       style="fill:#d4d2d7;fill-opacity:0.4790419;fill-rule:evenodd;stroke:none;stroke-width:0.38329154px;stroke-linecap:butt;stroke-linejoin:miter;stroke-opacity:1;opacity:0.807" />
    <path
       inkscape:export-ydpi="208.59625"
       inkscape:export-xdpi="208.59625"
       style="opacity:0.86000001;fill:#d4d2d7;fill-opacity:0.4790419;fill-rule:evenodd;stroke:none;stroke-width:0.38329154px;stroke-linecap:butt;stroke-linejoin:miter;stroke-opacity:1"
       d="m 339.21835,225.80391 -46.54682,46.54683 46.54682,46.54682 z"
       id="path4145"
       inkscape:connector-curvature="0"
       sodipodi:nodetypes="cccc" />
    <path
       inkscape:export-ydpi="208.59625"
       inkscape:export-xdpi="208.59625"
       sodipodi:nodetypes="cccc"
       inkscape:connector-curvature="0"
       id="path4147"
       d="m 339.21835,175.50129 56.37679,56.37678 -56.37679,56.37679 z"
       style="fill:#d4d2d7;fill-opacity:0.4790419;fill-rule:evenodd;stroke:none;stroke-width:0.38329154px;stroke-linecap:butt;stroke-linejoin:miter;stroke-opacity:1;opacity:0.635" />
    <path
       inkscape:export-ydpi="208.59625"
       inkscape:export-xdpi="208.59625"
       style="opacity:0.63300003;fill:#d4d2d7;fill-opacity:0.4790419;fill-rule:evenodd;stroke:none;stroke-width:0.38329154px;stroke-linecap:butt;stroke-linejoin:miter;stroke-opacity:1"
       d="m 292.67153,179.25708 46.54682,46.54682 -46.54682,46.54684 z"
       id="path4149"
       inkscape:connector-curvature="0"
       sodipodi:nodetypes="cccc" />
    <path
       inkscape:export-ydpi="208.59625"
       inkscape:export-xdpi="208.59625"
       sodipodi:nodetypes="cccc"
       inkscape:connector-curvature="0"
       id="path4151"
       d="m 339.21835,47.517259 -89.14329,89.143291 89.14329,89.14335 z"
       style="opacity:0.33000004;fill:#d4d2d7;fill-opacity:0.4790419;fill-rule:evenodd;stroke:none;stroke-width:0.38329154px;stroke-linecap:butt;stroke-linejoin:miter;stroke-opacity:1" />
    <path
       inkscape:export-ydpi="208.59625"
       inkscape:export-xdpi="208.59625"
       sodipodi:nodetypes="cccc"
       inkscape:connector-curvature="0"
       id="path4153"
       d="m 375.26153,282.85438 82.59001,82.59001 -82.59001,82.59 z"
       style="fill:#ffd34e;fill-opacity:1;fill-rule:evenodd;stroke:none;stroke-width:0.38329154px;stroke-linecap:butt;stroke-linejoin:miter;stroke-opacity:1" />
    <path
       inkscape:export-ydpi="208.59625"
       inkscape:export-xdpi="208.59625"
       style="opacity:0.42900002;fill:#d4d2d7;fill-opacity:0.4790419;fill-rule:evenodd;stroke:none;stroke-width:0.38329154px;stroke-linecap:butt;stroke-linejoin:miter;stroke-opacity:1"
       d="m 339.21835,206.14399 56.37679,56.37679 -56.37679,56.37678 z"
       id="path4155"
       inkscape:connector-curvature="0"
       sodipodi:nodetypes="cccc" />
    <path
       inkscape:export-ydpi="208.59625"
       inkscape:export-xdpi="208.59625"
       style="opacity:0.72000002;fill:#d4d2d7;fill-opacity:0.4790419;fill-rule:evenodd;stroke:none;stroke-width:0.38329154px;stroke-linecap:butt;stroke-linejoin:miter;stroke-opacity:1"
       d="M 339.21835,-34.101751 459.67803,86.35793 339.21835,206.81769 Z"
       id="path4159"
       inkscape:connector-curvature="0"
       sodipodi:nodetypes="cccc" />
    <path
       inkscape:export-ydpi="208.59625"
       inkscape:export-xdpi="208.59625"
       sodipodi:nodetypes="cccc"
       inkscape:connector-curvature="0"
       id="path4163"
       d="m 292.67153,96.501713 41.37764,41.377657 -41.37764,41.37768 z"
       style="opacity:0.63300003;fill:#d4d2d7;fill-opacity:0.4790419;fill-rule:evenodd;stroke:none;stroke-width:0.38329154px;stroke-linecap:butt;stroke-linejoin:miter;stroke-opacity:1" />
    <path
       inkscape:export-ydpi="208.59625"
       inkscape:export-xdpi="208.59625"
       style="fill:#d4d2d7;fill-opacity:0.4790419;fill-rule:evenodd;stroke:none;stroke-width:0.38329154px;stroke-linecap:butt;stroke-linejoin:miter;stroke-opacity:1;opacity:0.328"
       d="m 343.40355,479.89235 -50.73202,50.73202 50.73202,50.73202 z"
       id="path4171"
       inkscape:connector-curvature="0"
       sodipodi:nodetypes="cccc" />
    <path
       inkscape:export-ydpi="208.59625"
       inkscape:export-xdpi="208.59625"
       sodipodi:nodetypes="cccc"
       inkscape:connector-curvature="0"
       id="path4173"
       d="m 292.67153,530.62437 32.71043,32.71043 -32.71043,32.71043 z"
       style="fill:#d4d2d7;fill-opacity:0.4790419;fill-rule:evenodd;stroke:none;stroke-width:0.38329154px;stroke-linecap:butt;stroke-linejoin:miter;stroke-opacity:1;opacity:0.126" />
    <path
       inkscape:export-ydpi="208.59625"
       inkscape:export-xdpi="208.59625"
       sodipodi:nodetypes="cccc"
       inkscape:connector-curvature="0"
       id="path4175"
       d="m 292.67153,474.9213 -70.39191,70.39191 70.39191,70.39191 z"
       style="fill:#d4d2d7;fill-opacity:0.4790419;fill-rule:evenodd;stroke:none;stroke-width:0.38329154px;stroke-linecap:butt;stroke-linejoin:miter;stroke-opacity:1;opacity:0.266" />
    <path
       sodipodi:nodetypes="cccc"
       inkscape:connector-curvature="0"
       id="path4244"
       d="M 292.67153,-13.757626 20.480556,258.4334 292.67153,530.62437 Z"
       style="opacity:0.86000001;fill:#d4d2d7;fill-opacity:0.07784431;fill-rule:evenodd;stroke:none;stroke-width:0.38329154px;stroke-linecap:butt;stroke-linejoin:miter;stroke-opacity:1"
       inkscape:export-xdpi="208.59625"
       inkscape:export-ydpi="208.59625" />
    <path
       style="opacity:1;fill:#d4d2d7;fill-opacity:0.17664671;fill-rule:evenodd;stroke:none;stroke-width:0.38329154px;stroke-linecap:butt;stroke-linejoin:miter;stroke-opacity:1"
       d="m 256.62835,236.30756 -82.59,82.59 82.59,82.59 z"
       id="path4246"
       inkscape:connector-curvature="0"
       sodipodi:nodetypes="cccc"
       inkscape:export-xdpi="208.59625"
       inkscape:export-ydpi="208.59625" />
    <path
       style="opacity:1;fill:#d4d2d7;fill-opacity:0.39820359;fill-rule:evenodd;stroke:none;stroke-width:0.38329154px;stroke-linecap:butt;stroke-linejoin:miter;stroke-opacity:1"
       d="m 339.52803,21.52433 64.83361,64.83361 -64.83361,64.8336 z"
       id="path4248"
       inkscape:connector-curvature="0"
       sodipodi:nodetypes="cccc"
       inkscape:export-xdpi="208.59625"
       inkscape:export-ydpi="208.59625" />
    <path
       inkscape:connector-curvature="0"
       id="path4388"
       d="m -895.20739,-589.03835 c -16.08024,-0.15816 -32.36241,3.67766 -47.98437,11.74609 -26.39,13.62988 -47.31268,36.3613 -63.23434,68.70118 -9.2443,18.77687 -14.2696,33.47496 -18.9942,55.55078 -3.0897,14.4365 -3.3648,18.03193 -3.3984,44.69922 -0.026,20.51716 0.3912,29.42834 1.4258,30.46289 0.8042,0.80426 11.8241,3.06885 24.4882,5.03125 23.48754,3.63959 78.00543,13.56058 91.55083,16.66015 4.125,0.94392 7.7812,1.76791 8.125,1.83203 0.3437,0.0641 10.1875,-1.86062 21.875,-4.27734 18.6299,-3.85228 92.25615,-16.83398 95.47656,-16.83398 1.48408,0 4.318,-8.7279 7.10156,-21.875 3.26355,-15.41413 3.92877,-54.47378 1.20703,-70.88282 -4.19515,-25.29218 -15.90323,-54.40367 -28.80273,-71.61718 -23.8304,-31.80005 -55.90974,-48.87344 -88.83594,-49.19727 z m -56.92969,99.70508 c 7.89072,0.20901 13.84141,10.78769 11.44532,25.50976 -1.3924,8.55539 -3.7983,13.3434 -8.8379,17.58399 -4.448,3.74276 -9.33683,4.18925 -13.55273,1.23633 -4.0825,-2.85952 -6.39648,-9.17738 -6.39648,-17.46485 0,-9.83738 2.25686,-16.38702 7.57226,-21.97461 3.29794,-3.46687 6.68186,-4.97241 9.76953,-4.89062 z m 107.62305,15.11719 c 7.9508,0 12.69141,7.22343 12.69141,19.33789 0,19.76953 -13.87141,33.39224 -23.84571,23.41797 -11.7128,-11.71284 -3.6139,-42.75586 11.1543,-42.75586 z m -103.33789,63.01757 c 0.61488,-0.004 3.72375,1.96735 7.21875,4.59571 15.4097,11.58845 26.20351,14.92031 47.97851,14.8125 8.2774,-0.041 17.86329,-0.54038 21.30079,-1.11133 7.9044,-1.31289 9.04695,-0.60099 5.40625,3.37109 -5.588,6.09656 -17.15159,12.58522 -26.0254,14.60352 -10.0804,2.29274 -13.61041,2.33821 -21.26171,0.27344 -11.3757,-3.06985 -23.67597,-14.33475 -31.35157,-28.7129 -2.1362,-4.00156 -3.64471,-7.51347 -3.35351,-7.80468 0.0182,-0.0182 0.0469,-0.0271 0.0879,-0.0274 z m -291.94918,19.48243 c -0.9504,0 -1.0894,58.3339 -0.4785,200.89062 l 0.8613,200.888667 2.7305,2.90625 c 4.0375,4.2977 33.1348,18.234984 50.334,24.109384 28.428,9.7096 54.187,14.85185 90.9843,18.16015 44.0743,3.9626 109.53063,13.17328 154.01563,21.67188 10.3125,1.9701 19.3125,3.45935 20,3.31055 0.8255,-0.1786 1.3575,-69.400414 1.5664,-203.849611 0.1739,-111.96877 -0.12943,-204.02592 -0.67383,-204.57032 -2.3622,-2.3622 -77.48547,-15.74169 -117.7676,-20.97461 -10.6563,-1.38431 -32.875,-3.90895 -49.375,-5.61132 -36.0023,-3.71451 -60.9358,-7.81477 -84.7754,-13.93946 -19.2919,-4.95633 -45.0309,-13.54566 -57.9277,-19.33203 -4.4857,-2.01261 -8.7575,-3.66015 -9.4941,-3.66015 z m 668.80075,0.83789 c -1.47811,0.0299 -6.38564,1.69434 -11.8457,4.0625 -16.2921,7.06628 -34.57632,13.10638 -56.70117,18.72851 -25.0425,6.36351 -43.09801,9.34828 -80.25197,13.26953 -33.10697,3.49412 -64.94079,7.7489 -94.05468,12.57227 -23.8075,3.94425 -70.3686,12.99774 -74.0625,14.40039 l -2.8125,1.06836 0,202.94726 c 0,111.621197 0.37363,203.322951 0.83203,203.781251 1.3858,1.3858 4.19454,1.02693 32.52734,-4.14257 50.8381,-9.2757 100.19124,-16.24775 146.64063,-20.71875 35.22502,-3.3906 61.28092,-8.73767 88.22266,-18.10157 13.07415,-4.544 42.00734,-18.532164 47.40235,-22.917974 l 3.75,-3.04882 0.83984,-200.431637 c 0.46267,-110.23732 0.43049,-200.85755 -0.0723,-201.37891 -0.0629,-0.0652 -0.2029,-0.0941 -0.41406,-0.0898 z m -58.35742,66.28125 c 0.20628,-0.009 0.33987,0.01 0.39062,0.0605 1.26578,1.26576 0.80646,26.60738 -0.52734,29.09961 -1.42498,2.66261 -15.89326,7.64248 -39.47071,13.58594 -20.27947,5.11211 -38.98931,8.35964 -65.25586,11.32617 -25.26073,2.85294 -44.78129,6.08527 -69.00781,11.42578 -16.312,3.59585 -42.45468,10.23523 -46.67188,11.85352 -1.2074,0.46335 -2.27925,0.0911 -2.59375,-0.90234 -1.0425,-3.29224 -1.71569,-26.97958 -0.80859,-28.44727 2.6542,-4.29459 68.87843,-17.05108 114.44922,-22.04492 32.84146,-3.5989 67.49697,-11.55877 97.3125,-22.35157 5.69534,-2.06162 10.73964,-3.53991 12.1836,-3.60546 z m -431.61133,19.3125 c 2.2267,0.0166 5.1267,1.21135 10.2344,3.76367 14.4763,7.23393 27.249,22.87301 31.9258,39.09179 3.22,11.1665 2.0275,29.26641 -2.8692,43.56446 -3.9736,11.60259 -12.4184,27.18386 -20.6367,38.07226 -2.7182,3.60143 -4.6685,7.26573 -4.332,8.14258 0.3365,0.87686 4.5689,2.86842 9.4043,4.42578 11.2242,3.61498 32.8192,14.20644 47.57808,23.33594 32.9107,20.35773 42.39087,40.93582 27.76367,60.261718 -4.3856,5.7944 -4.82812,7.08501 -4.82812,14.03711 0,9.954899 -3.88821,17.984559 -11.47461,23.697259 -4.6078,3.4697 -5.88589,5.35357 -7.21289,10.63477 -2.8947,11.5201 -11.18323,20.49718 -21.48633,23.27148 -4.036,1.0868 -4.72,1.87911 -6.1074,7.0664104 -2.2324,8.3466 -8.9584,14.71236 -17.4688,16.5351596 -7.37,1.5786 -9.3564,1.58778 -18.3515,0.08398 -3.4239,-0.5723 -10.1739,-2.4273496 -15,-4.1230496 -6.9207,-2.4317 -12.2067,-3.22868 -25.0235,-3.77148 -8.9375,-0.3784 -19.1053,-1.54329 -22.5937,-2.58789002 -14.1638,-4.24149998 -33.7034,-20.64996038 -49.3906,-41.47656038 l -8.6016,-11.41993 -20.332,-0.6875 c -11.1829,-0.37789 -21.9405,-0.70561 -23.9063,-0.72851 -5.409,-0.063 -6.54,-1.74381 -8.7031,-12.945309 -4.7709,-24.705501 -5.6574,-40.359008 -3.2851,-58.021488 1.4994,-11.16265 6.7893,-31.77571 9.5,-37.01758 l 1.8261,-3.53125 27.1172,0.74805 27.1191,0.74805 21.9375,-23.48828 c 17.0291,-18.23261 26.1192,-26.76236 40.625,-38.125 20.5381,-16.08793 21.7234,-17.67587 25.0176,-33.47461 0.9817,-4.70857 2.3173,-16.05446 2.9668,-25.21485 1.0489,-14.7925 1.4839,-16.90114 3.8926,-18.85156 1.6396,-1.32771 2.9634,-2.02853 4.6953,-2.01562 z m 5.0019,13.85156 c -0.2991,-9.1e-4 -0.5549,0.0605 -0.7636,0.18945 -0.6318,0.39047 -1.5488,5.64722 -2.0371,11.68164 -1.1325,13.99664 -3.9546,28.89732 -7.0293,37.11524 -2.8059,7.49934 -7.8416,12.6392 -25.5567,26.07812 -11.6468,8.83539 -31.8158,28.43844 -54.7968,53.26172 l -9.7051,10.48242 -25.8145,-0.48242 -25.8144,-0.48437 -2.2969,7.5 c -4.6509,15.18674 -6.2895,29.0064 -5.4843,46.249997 0.6623,14.185101 3.1502,32.168251 4.6562,33.656251 0.7577,0.748699 20.0514,1.809229 34.4629,1.894529 l 12.7089,0.07422 6.8653,9.79687 c 14.0869,20.1036 29.1465,34.77501 42.6054,41.50781 7.0337,3.5186004 14.4883,4.8866104 14.4883,2.65821 0,-0.571 -2.5378,-2.86109 -5.6386,-5.08789 -3.1008,-2.2268 -6.5379,-5.78927 -7.6387,-7.91797 -2.6725,-5.1681 -1.7036,-12.88769 2.4023,-19.14649 2.9607,-4.5132 3.1164,-5.37942 1.8262,-10.14062 -1.7998,-6.6419 0.031,-13.238329 5.7539,-20.736329 2.7812,-3.6436 4.4092,-7.43041 4.9766,-11.57031 1.0559,-7.703301 5.365,-14.322021 12.539,-19.257818 4.6516,-3.2004 5.6975,-4.68519 6.4395,-9.15039 1.8517,-11.14434 7.6791,-18.43608 17.7422,-22.20117 9.0261,-3.37709 17.2294,-3.15001 29.207,0.8086 10.1723,3.36201 29.9888,13.8569 30.8086,16.3164 0.2468,0.7404 -0.8429,2.81081 -2.4219,4.59961 l -2.8711,3.25195 -15.1289,-7.59179 c -15.4452,-7.75092 -25.4027,-10.18651 -33.414,-8.17578 -4.8058,1.20616 -10.5017,6.6264 -12.1211,11.5332 -1.9796,5.9982 0.1642,8.22364 14.414,14.960937 34.2746,16.205101 57.87189,22.116571 69.91409,17.517571 6.9162,-2.6413 15.27454,-11.503671 16.37305,-17.359371 2.48649,-13.254297 -14.38211,-29.287917 -49.41214,-46.968747 -17.2529,-8.70813 -25.4877,-11.99804 -36.1191,-14.42969 -9.1744,-2.0984 -9.8114,-2.55291 -10.8477,-7.73437 -0.6484,-3.24162 0.04,-4.73881 4.5723,-9.96094 12.6985,-14.63092 23.8983,-35.30397 28.1777,-52.00781 2.9778,-11.62352 1.9223,-28.45516 -2.2988,-36.63867 -5.1849,-10.05235 -19.2353,-24.07819 -23.7227,-24.0918 z m 426.17584,23.47851 c 1.15917,-0.007 1.55716,3.61826 1.54296,14.05079 -0.01,7.73437 -0.46309,14.7625 -1.00585,15.61718 -2.05251,3.23202 -35.0212,12.86027 -62.72462,18.31836 -8.59375,1.69313 -26.03125,4.26987 -38.75,5.72461 -37.79214,4.32258 -64.01756,9.20578 -101.00196,18.81055 -10.5198,2.73196 -19.6605,4.9668 -20.3125,4.9668 -0.6521,0 -1.18554,-4.42969 -1.18554,-9.84375 0,-5.41406 -0.31673,-11.46094 -0.70313,-13.4375 -1.1585,-5.92538 1.47869,-7.85275 15.12109,-11.05469 32.1141,-7.53737 64.20884,-13.08418 98.08204,-16.95117 12.71875,-1.45199 27.625,-3.47249 33.125,-4.49024 15.89389,-2.9411 46.23634,-11.0908 61.875,-16.61914 7.90626,-2.7949 15.07813,-5.0859 15.93751,-5.0918 z m 0.76171,56.23829 c 1.57198,0 0.863,28.19212 -0.76171,30.2871 -2.0852,2.68876 -29.02821,11.12362 -50.50197,15.81055 -17.42945,3.80419 -29.09895,5.58923 -66.32617,10.14258 -24.73814,3.02579 -51.69182,8.23551 -81.01562,15.66016 -12.1636,3.07978 -22.83449,5.59961 -23.7129,5.59961 -1.16219,0 -1.7497,-3.65855 -2.1582,-13.4375 -0.3088,-7.39063 -0.12264,-14.32686 0.41406,-15.41407 0.6694,-1.35613 7.37473,-3.39758 21.35743,-6.5039 36.3481,-8.07489 53.26276,-10.9607 89.13086,-15.20703 40.68917,-4.81709 63.96429,-9.94505 96.38671,-21.23243 9.01307,-3.13778 16.74745,-5.70507 17.18751,-5.70507 z m -2.01757,114.482417 c 3.72052,-0.0074 2.81145,3.81126 2.79882,13.185541 -0.01,7.8146 -0.4324,14.82759 -0.9375,15.58399 -1.56731,2.3473 -5.34297,3.826299 -23.19922,9.095699 -23.48131,6.9295 -49.42828,12.03351 -77.09375,15.16211 -37.02379,4.1869 -77.7725,11.92165 -108.9961,20.68945 -15.5661,4.3711 -14.7539,4.74274 -14.7539,-6.79296 0,-5.414 -0.31673,-11.4609 -0.70313,-13.4375 -0.4076,-2.0848 -0.014,-4.5098 0.9375,-5.77539 3.1737,-4.22171 68.39277,-17.159749 108.51563,-21.527349 36.61732,-3.986 64.35954,-9.91481 93.75,-20.037111 11.09368,-3.82077 16.7879,-6.14073 19.68165,-6.14648 z m -443.24418,0.3457 c -0.9984,0.0065 -1.7801,0.32819 -2.7695,0.83984 -5.0738,2.6238 -9.918,9.03224 -9.918,13.119141 0,5.7976 11.5667,12.74641 39.9004,23.970709 25.115,9.9492 32.6418,11.25491 48.30666,8.38281 12.9648,-2.3771 20.54297,-8.45687 20.54297,-16.484369 0,-2.9614 -0.04,-2.97075 -14.6875,-2.90235 l -14.68753,0.07031 -19.375,-7.17382 c -10.6563,-3.9453 -25.5258,-10.222421 -33.0429,-13.949221 -8.8253,-4.37546 -12.0729,-5.88744 -14.2696,-5.87305 z m -17.0625,29.128911 c -1.607,-0.04645 -2.7634,1.18989 -4.3886,3.855469 -3.504,5.747 -3.1033,8.88958 1.6738,13.08398 7.9798,7.0063 39.7096,21.91577 57.0898,26.82617 10.0375,2.8359 24.0047,2.23241 30.959,-1.33789 4.7341,-2.4304 9.04103,-8.15402 9.04103,-12.01562 0,-1.8709 -1.0045,-2.02194 -8.49613,-1.26954 -4.9949,0.50161 -11.8188,0.25766 -16.5625,-0.59374 -14.7953,-2.6554 -52.0869,-17.83519 -64.3164,-26.17969 -2.2277,-1.520049 -3.7501,-2.333019 -5,-2.369139 z m 461.67777,26.742179 c 0.19405,-0.0071 0.33058,0.01034 0.40234,0.05469 1.72103,1.0637 1.26354,27.2286 -0.51757,29.5918 -2.92698,3.8836004 -40.4286,14.6107704 -68.43751,19.5761704 -7.90625,1.4016 -24.76843,3.7103596 -37.47071,5.1308596 -24.9639,2.7917 -47.53235,6.66011 -73.15429,12.537114 -15.7173,3.6051 -37.41339,9.23738 -41.23829,10.70508 -1.0259,0.3937 -2.10774,-0.0462 -2.40234,-0.97656 -0.803,-2.5358 -1.72975,-26.4574336 -1.09375,-28.2324336 0.3035,-0.8472 2.89898,-2.17366 5.76758,-2.94726 20.8554,-5.6246 67.60605,-14.4801704 91.4668,-17.3261704 35.70451,-4.2587 43.92691,-5.43808 57.85742,-8.29688 17.7089,-3.6342 45.05834,-11.42869 58.7422,-16.74219 4.54194,-1.76365 8.71974,-3.02426 10.07812,-3.07422 z m -468.52147,2.82032 c -1.045,0.0033 -1.6292,0.58032 -2.5547,1.50586 -3.8496,3.8496 -3.1287,8.00691 2.1445,12.35351 6.357,5.24 40.9822,22.5072604 47.8789,23.87696038 9.267,1.84040002 19.756,0.65976 23.2422,-2.61523998 4.5314,-4.257 3.93,-7.1289404 -1.6797,-8.0234404 -14.7749,-2.356 -34.5396,-9.83712 -56.2734,-21.29882 -7.9969,-4.21738 -11.0162,-5.80429 -12.7578,-5.79883 z"
       style="fill:#f5f7f8" />
    <g
       transform="matrix(0,-0.90077583,1,0,-3372.4955,754.43631)"
       id="g4438"
       inkscape:export-xdpi="26.313948"
       inkscape:export-ydpi="26.313948">
      <path
         sodipodi:nodetypes="czcczcc"
         inkscape:connector-curvature="0"
         id="path4440"
         d="m -1150.6144,124.29493 c 0,0 -42.206,6.68024 -42.206,166.48671 0,159.80647 -52.265,283.15327 -52.265,283.15327 0,0 -611.0023,4.33044 -611.0023,4.33044 0,0 37.8694,-102.8148 37.8694,-240.7518 0,-137.937 30.4777,-140.96912 30.4777,-140.96912 0,0 637.1262,-72.2495 637.1262,-72.2495"
         style="opacity:1;fill:url(#linearGradient4734);fill-opacity:1;stroke:none" />
      <path
         style="opacity:1;fill:url(#linearGradient4736);fill-opacity:1;stroke:none"
         d="m -1150.6144,1022.2358 c 0,0 -42.206,-6.082 -42.206,-165.88847 0,-159.80648 -52.265,-282.41242 -52.265,-282.41242 0,0 -611.0023,4.33044 -611.0023,4.33044 0,0 37.8694,102.27801 37.8694,240.21501 0,137.937 30.4777,140.5371 30.4777,140.5371 0,0 637.1262,63.21834 637.1262,63.21834"
         id="path4442"
         inkscape:connector-curvature="0"
         sodipodi:nodetypes="czcczcc" />
    </g>
    <path
       style="opacity:1;fill:url(#linearGradient4854);fill-opacity:1;stroke:none"
       d="m -2597.5625,129.22461 a 193.86841,237.81187 0 0 1 -145.8125,81.36133 193.86841,237.81187 0 0 1 -145.6426,-81.30274 357.49548,217.81187 0 0 0 -211.8535,198.61914 357.49548,217.81187 0 0 0 357.4961,217.81055 357.49548,217.81187 0 0 0 357.4961,-217.81055 357.49548,217.81187 0 0 0 -211.6836,-198.67773 z"
       id="path4836"
       inkscape:connector-curvature="0" />
    <g
       id="g4838"
       transform="translate(-1240,0)">
      <path
         sodipodi:nodetypes="czcczcc"
         inkscape:connector-curvature="0"
         id="path4840"
         d="m -1953.2032,221.36304 c 0,0 1.9169,35.51279 163.6451,35.51279 161.7282,0 286.1834,44.98286 286.1834,44.98286 l 0,625.02502 c 0,0 -122.0337,-44.98286 -286.1834,-44.98286 -164.1497,0 -163.6451,-35.51279 -163.6451,-35.51279 z"
         style="opacity:1;fill:url(#linearGradient4856);fill-opacity:1;stroke:none" />
      <path
         style="opacity:1;fill:url(#linearGradient4858);fill-opacity:1;stroke:none"
         d="m -1053.5462,221.36304 c 0,0 -1.9169,35.51279 -163.6451,35.51279 -161.7282,0 -286.1834,44.98286 -286.1834,44.98286 l 0,625.02502 c 0,0 122.0337,-44.98286 286.1834,-44.98286 164.1497,0 163.6451,-35.51279 163.6451,-35.51279 z"
         id="path4842"
         inkscape:connector-curvature="0"
         sodipodi:nodetypes="czcczcc" />
    </g>
    <ellipse
       style="opacity:1;fill:url(#linearGradient4860);fill-opacity:1;stroke:none"
       id="ellipse4844"
       cx="-2743.3748"
       cy="-27.226433"
       rx="177.56406"
       ry="217.81187" />
    <path
       style="opacity:1;fill:#ff6600;fill-opacity:1;stroke:none"
       d="m -3193.2032,221.36304 897.9409,0 -70,705.47326 -747.9409,0 z"
       id="path4846"
       inkscape:connector-curvature="0"
       sodipodi:nodetypes="ccccc" />
    <g
       id="g4848"
       transform="matrix(0,-1,1,0,-3317.4981,-929.25135)">
      <path
         style="opacity:1;fill:url(#linearGradient4862);fill-opacity:1;stroke:none"
         d="m -1150.6144,124.29493 c 0,0 -42.206,6.68024 -42.206,166.48671 0,159.80647 -52.265,283.15327 -52.265,283.15327 0,0 -611.0023,4.33044 -611.0023,4.33044 0,0 37.8694,-102.8148 37.8694,-240.7518 0,-137.937 30.4777,-140.96912 30.4777,-140.96912 0,0 637.1262,-72.2495 637.1262,-72.2495"
         id="path4850"
         inkscape:connector-curvature="0"
         sodipodi:nodetypes="czcczcc" />
      <path
         sodipodi:nodetypes="czcczcc"
         inkscape:connector-curvature="0"
         id="path4852"
         d="m -1150.6144,1022.2358 c 0,0 -42.206,-6.082 -42.206,-165.88847 0,-159.80648 -52.265,-282.41242 -52.265,-282.41242 0,0 -611.0023,4.33044 -611.0023,4.33044 0,0 37.8694,102.27801 37.8694,240.21501 0,137.937 30.4777,140.5371 30.4777,140.5371 0,0 637.1262,63.21834 637.1262,63.21834"
         style="opacity:1;fill:url(#linearGradient4864);fill-opacity:1;stroke:none" />
    </g>
    <g
       style="font-style:normal;font-weight:normal;font-size:624.19854736px;line-height:125%;font-family:sans-serif;letter-spacing:0px;word-spacing:0px;fill:#a02c2c;fill-opacity:0.21327377;stroke:none;stroke-width:1px;stroke-linecap:butt;stroke-linejoin:miter;stroke-opacity:1"
       id="text4909"
       transform="matrix(0.41740486,0,0,0.41740486,-1122.1552,269.14695)">
      <path
         d="m -1364.4894,458.0741 -204.1129,0 0,111.73154 127.5187,0 49.7537,50.56008 -177.2724,0 0,176.02399 -58.0504,-52.3259 0,-337.17399 211.0249,0 z"
         style="font-style:normal;font-variant:normal;font-weight:bold;font-stretch:normal;font-family:'Oriya Sangam MN';-inkscape-font-specification:'Oriya Sangam MN Bold';fill:#a02c2c;fill-opacity:0.21327377"
         id="path4914"
         inkscape:connector-curvature="0"
         sodipodi:nodetypes="ccccccccccc" />
    </g>
    <path
       style="fill:url(#linearGradient5085);fill-rule:evenodd;stroke:none;stroke-width:0.90313286px;stroke-linecap:butt;stroke-linejoin:miter;stroke-opacity:1;fill-opacity:1.0"
       d="m -812,1924.4273 0,-660.1067 -441.8105,-145.1863 81.5517,605.2607 z"
       id="path5038"
       inkscape:connector-curvature="0"
       sodipodi:nodetypes="ccccc" />
    <path
       sodipodi:nodetypes="ccccc"
       inkscape:connector-curvature="0"
       id="path5040"
       d="m -812,1924.4273 0,-660.1067 441.81056,-145.1863 -81.5517,605.2607 z"
       style="fill:url(#linearGradient5091);fill-rule:evenodd;stroke:none;stroke-width:0.90313286px;stroke-linecap:butt;stroke-linejoin:miter;stroke-opacity:1;fill-opacity:1.0" />
    <g
       id="g4835"
       inkscape:export-xdpi="14.545203"
       inkscape:export-ydpi="14.545203"
       transform="translate(2.9426575e-5,0)">
      <path
         inkscape:export-ydpi="4.8000007"
         inkscape:export-xdpi="4.8000007"
         style="fill:url(#linearGradient4239);fill-opacity:1;fill-rule:evenodd;stroke:none;stroke-width:0.90313286px;stroke-linecap:butt;stroke-linejoin:miter;stroke-opacity:1"
         d="m 998.18947,2752.4273 0,-491.826 -299.99997,-108.174 55.37557,450.9618 z"
         id="path4235"
         inkscape:connector-curvature="0"
         sodipodi:nodetypes="ccccc" />
      <path
         inkscape:export-ydpi="4.8000007"
         inkscape:export-xdpi="4.8000007"
         sodipodi:nodetypes="ccccc"
         inkscape:connector-curvature="0"
         id="path4237"
         d="m 998.18947,2752.4273 0,-491.826 300.00003,-108.174 -55.3756,450.9618 z"
         style="fill:url(#linearGradient4241);fill-opacity:1;fill-rule:evenodd;stroke:none;stroke-width:0.90313286px;stroke-linecap:butt;stroke-linejoin:miter;stroke-opacity:1" />
    </g>
    <text
       xml:space="preserve"
       style="font-style:normal;font-weight:normal;font-size:72.18774414px;line-height:125%;font-family:sans-serif;letter-spacing:-0.03355935px;word-spacing:0px;fill:#6c5d53;fill-opacity:1;stroke:none;stroke-width:1px;stroke-linecap:butt;stroke-linejoin:miter;stroke-opacity:1"
       x="996.49255"
       y="2874.1304"
       id="text4212"
       sodipodi:linespacing="125%"
       inkscape:export-xdpi="14.545203"
       inkscape:export-ydpi="14.545203"><tspan
         sodipodi:role="line"
         id="tspan4214"
         x="996.49255"
         y="2874.1304"
         style="font-style:normal;font-variant:normal;font-weight:bold;font-stretch:condensed;font-family:'PT Sans Narrow';-inkscape-font-specification:'PT Sans Narrow Condensed';text-align:center;letter-spacing:0px;text-anchor:middle;fill:#6c5d53"><tspan
   style="font-weight:normal;text-align:center;letter-spacing:0px;text-anchor:middle;fill:#6c5d53"
   id="tspan4833">EASY </tspan>FLAC</tspan></text>
  </g>
</svg>
